<svg xmlns="http://www.w3.org/2000/svg" viewBox="0 0 311.03 302.49"><defs><style>.cls-1{fill:#1d1d1b;}</style></defs><title>Asset 1</title><g id="Layer_2" data-name="Layer 2"><g id="Lager_1" data-name="Lager 1"><path class="cls-1" d="M37.23,253.69V225.46h5.91V238h.35l10.43-12.58h6.57L50.2,237.85l11,15.84H54.14l-8.2-11.81-2.8,3.3v8.51Z"/><path class="cls-1" d="M82.86,247H72.94l-2.17,6.73H64.84l9.81-28.23h6.94l9.8,28.23H85ZM73.53,222.8a3.23,3.23,0,0,1-1.22-.22,3,3,0,0,1-1-.62,2.68,2.68,0,0,1-.63-.94,3.07,3.07,0,0,1-.22-1.19,3,3,0,0,1,.22-1.18,2.78,2.78,0,0,1,.63-.94,2.69,2.69,0,0,1,1-.62,3.65,3.65,0,0,1,2.44,0,2.69,2.69,0,0,1,1,.62,2.78,2.78,0,0,1,.63.94,3,3,0,0,1,.22,1.18,3.07,3.07,0,0,1-.22,1.19,2.68,2.68,0,0,1-.63.94,3,3,0,0,1-1,.62A3.23,3.23,0,0,1,73.53,222.8Zm.68,19.6h7.4l-3.5-11.07h-.35Zm8.48-19.6a3.08,3.08,0,0,1-2.18-.84,2.68,2.68,0,0,1-.63-.94,3.08,3.08,0,0,1-.23-1.19,3,3,0,0,1,.23-1.18,2.78,2.78,0,0,1,.63-.94,2.83,2.83,0,0,1,1-.62,3.38,3.38,0,0,1,1.21-.21,3.43,3.43,0,0,1,1.22.21,2.83,2.83,0,0,1,1,.62,2.78,2.78,0,0,1,.63.94,3,3,0,0,1,.23,1.18,3.08,3.08,0,0,1-.23,1.19,2.68,2.68,0,0,1-.63.94,3.16,3.16,0,0,1-1,.62A3.23,3.23,0,0,1,82.69,222.8Z"/><path class="cls-1" d="M115.87,253.69H97.4V225.46h5.91v23.09h12.56Z"/><path class="cls-1" d="M140.9,253.69H122.43V225.46h5.91v23.09H140.9Z"/><path class="cls-1" d="M153.43,243.34a7,7,0,0,0,.39,2.41,4.84,4.84,0,0,0,3,3,8,8,0,0,0,5.05,0,4.84,4.84,0,0,0,3-3,7,7,0,0,0,.39-2.41V225.46h5.91V244a10.73,10.73,0,0,1-.83,4.27,9.38,9.38,0,0,1-2.38,3.31,10.79,10.79,0,0,1-3.72,2.13,16.18,16.18,0,0,1-9.8,0,10.6,10.6,0,0,1-3.72-2.13,9.23,9.23,0,0,1-2.37-3.31,10.73,10.73,0,0,1-.83-4.27V225.46h5.91Z"/><path class="cls-1" d="M179.26,253.69V225.46h4.93l13,17.59h.35V225.46h5.65v28.23h-4.89l-13-17.66h-.35v17.66Z"/><path class="cls-1" d="M235.17,247.27a10.65,10.65,0,0,1-2.5,3.86,10.83,10.83,0,0,1-3.94,2.43,16.14,16.14,0,0,1-10.87-.17,11.65,11.65,0,0,1-4.25-2.95,12.85,12.85,0,0,1-2.69-4.67,19.12,19.12,0,0,1-.94-6.22,18.82,18.82,0,0,1,.94-6.15,13.06,13.06,0,0,1,2.68-4.67,11.67,11.67,0,0,1,4.21-2.95,14.14,14.14,0,0,1,5.57-1,15,15,0,0,1,4.64.69,12.18,12.18,0,0,1,3.75,2,10.6,10.6,0,0,1,2.66,3.07,11.09,11.09,0,0,1,1.35,4h-5.87a6.16,6.16,0,0,0-2.35-3.33,7.11,7.11,0,0,0-4.18-1.19,7,7,0,0,0-3.07.66,6.32,6.32,0,0,0-2.32,1.89,8.93,8.93,0,0,0-1.46,3,15.92,15.92,0,0,0,0,8.07,9,9,0,0,0,1.52,3.06,6.74,6.74,0,0,0,2.39,1.93,7.34,7.34,0,0,0,3.15.66,8.29,8.29,0,0,0,2.66-.41,6.3,6.3,0,0,0,2.09-1.15,5.55,5.55,0,0,0,1.38-1.8,5.62,5.62,0,0,0,.54-2.33l0-.51h-6.12v-4.44H236v3.6A14.13,14.13,0,0,1,235.17,247.27Z"/><path class="cls-1" d="M261.59,253.69h-18.7V225.46h18.7v5H248.8v6.59h12.07v4.68H248.8v6.86h12.79Z"/><path class="cls-1" d="M29.18,301.77V278.59H20.71v-5H43.56v5H35.09v23.18Z"/><path class="cls-1" d="M68.68,301.77H50V273.54h18.7v5H55.89v6.59H68v4.67H55.89v6.87H68.68Z"/><path class="cls-1" d="M100,295.35a10.59,10.59,0,0,1-2.49,3.85,11,11,0,0,1-4,2.44,15,15,0,0,1-5.21.85,14.66,14.66,0,0,1-5.65-1,11.63,11.63,0,0,1-4.26-2.94,13.13,13.13,0,0,1-2.69-4.68,19.35,19.35,0,0,1-.94-6.22,19.09,19.09,0,0,1,.94-6.15,13.17,13.17,0,0,1,2.68-4.66,11.73,11.73,0,0,1,4.22-3,14.27,14.27,0,0,1,5.56-1,15,15,0,0,1,4.64.7,12.13,12.13,0,0,1,3.76,2,10.62,10.62,0,0,1,2.66,3.07,11.09,11.09,0,0,1,1.35,4H94.79a6.16,6.16,0,0,0-2.36-3.34,7.81,7.81,0,0,0-7.25-.53,6.5,6.5,0,0,0-2.32,1.89,8.92,8.92,0,0,0-1.45,3,14.53,14.53,0,0,0-.51,4,14.14,14.14,0,0,0,.53,4.07,9.09,9.09,0,0,0,1.51,3.07,6.55,6.55,0,0,0,2.4,1.92,7.2,7.2,0,0,0,3.15.67,8.38,8.38,0,0,0,2.66-.41,6.27,6.27,0,0,0,2.08-1.16,5.35,5.35,0,0,0,1.38-1.8,5.74,5.74,0,0,0,.55-2.33l0-.5H89.06v-4.44h11.85v3.6A14.13,14.13,0,0,1,100,295.35Z"/><path class="cls-1" d="M126.47,301.77h-18.7V273.54h18.7v5h-12.8v6.59h12.07v4.67H113.67v6.87h12.8Z"/><path class="cls-1" d="M152.36,301.77H133.89V273.54h5.91v23.08h12.56Z"/><path class="cls-1" d="M158.92,301.77V273.54h12.34a12.61,12.61,0,0,1,3.68.49,7.84,7.84,0,0,1,2.75,1.4,6,6,0,0,1,1.72,2.21,6.93,6.93,0,0,1,.6,2.94,5.77,5.77,0,0,1-.4,2.14,6,6,0,0,1-1.07,1.83,6.2,6.2,0,0,1-1.62,1.35,5.61,5.61,0,0,1-2,.71V287a7.11,7.11,0,0,1,2.59.65,7.23,7.23,0,0,1,2,1.45,6.58,6.58,0,0,1,1.34,2.08,6.69,6.69,0,0,1,.48,2.55,8,8,0,0,1-.68,3.35,7,7,0,0,1-2,2.55,9.09,9.09,0,0,1-3.08,1.61,13.46,13.46,0,0,1-4.06.57Zm5.91-16.53h4.44a6.1,6.1,0,0,0,3.66-.93,3.08,3.08,0,0,0,1.27-2.65A3.23,3.23,0,0,0,173,279a5,5,0,0,0-3.28-.95h-4.93Zm5.26,12a6.27,6.27,0,0,0,3.9-1,3.6,3.6,0,0,0,1.34-3,3.4,3.4,0,0,0-1.38-2.95,6.73,6.73,0,0,0-4-1h-5.12v8Z"/><path class="cls-1" d="M193.81,301.77H187.9V273.54h11.85a13,13,0,0,1,4.19.63,8.68,8.68,0,0,1,3.15,1.79,8,8,0,0,1,2,2.85,9.7,9.7,0,0,1,.7,3.79,10.05,10.05,0,0,1-.34,2.59,8.89,8.89,0,0,1-1,2.29,7.94,7.94,0,0,1-3.79,3.14l6,11.15H203.9l-5.26-10.23h-4.83Zm0-14.77H199a4.93,4.93,0,0,0,3.48-1.14,4.11,4.11,0,0,0,1.23-3.19,4.82,4.82,0,0,0-.33-1.81,3.71,3.71,0,0,0-1-1.37,4.12,4.12,0,0,0-1.5-.87,6,6,0,0,0-2-.31h-5.12Z"/><path class="cls-1" d="M222.88,291.42a6.94,6.94,0,0,0,.39,2.4,4.93,4.93,0,0,0,3,3,7.22,7.22,0,0,0,2.51.41,7.3,7.3,0,0,0,2.53-.41,5.07,5.07,0,0,0,1.86-1.18,4.84,4.84,0,0,0,1.15-1.84,6.94,6.94,0,0,0,.39-2.4V273.54h5.91V292a10.56,10.56,0,0,1-.84,4.27,9.32,9.32,0,0,1-2.37,3.31,10.9,10.9,0,0,1-3.73,2.13,16.35,16.35,0,0,1-9.79,0,10.9,10.9,0,0,1-3.73-2.13,9.42,9.42,0,0,1-2.36-3.31A10.56,10.56,0,0,1,217,292V273.54h5.9Z"/><path class="cls-1" d="M248.71,301.77V273.54h5.91v12.58H255l10.43-12.58H272l-10.29,12.38,11,15.85h-7.08L257.42,290l-2.8,3.31v8.51Z"/><path class="cls-1" d="M285.42,287.39h-4V276.28h-4.71V272.7h13.51v3.58h-4.81Zm11.86,0h-3.6V272.7h4.57l4,7.82h.16l4-7.82H311v14.69h-3.58v-9.31h-.2l-3.91,7.8h-2l-3.91-7.8h-.19Z"/><rect class="cls-1" x="48.26" y="133.95" width="2" height="4"/><rect class="cls-1" x="88.18" y="32.92" width="4" height="2"/><rect class="cls-1" y="54.74" width="2" height="4"/><rect class="cls-1" x="7.09" y="71.65" width="4" height="2"/><rect class="cls-1" y="62.74" width="2" height="4"/><polygon class="cls-1" points="2 70.74 0 70.74 0 73.65 3.09 73.65 3.09 71.65 2 71.65 2 70.74"/><rect class="cls-1" x="15.09" y="71.65" width="4" height="2"/><rect class="cls-1" x="48.26" y="149.95" width="2" height="4"/><rect class="cls-1" x="48.26" y="141.95" width="2" height="4"/><rect class="cls-1" x="31.09" y="71.65" width="4" height="2"/><rect class="cls-1" x="48.26" y="157.95" width="2" height="4"/><rect class="cls-1" x="39.09" y="71.65" width="4" height="2"/><rect class="cls-1" x="48.26" y="165.95" width="2" height="4"/><rect class="cls-1" x="40.18" y="32.92" width="4" height="2"/><rect class="cls-1" x="51.9" y="131.59" width="4" height="2"/><rect class="cls-1" x="56.18" y="32.92" width="4" height="2"/><rect class="cls-1" x="48.18" y="32.92" width="4" height="2"/><rect class="cls-1" x="72.18" y="32.92" width="4" height="2"/><rect class="cls-1" x="64.18" y="32.92" width="4" height="2"/><rect class="cls-1" x="80.18" y="32.92" width="4" height="2"/><rect class="cls-1" x="32.18" y="32.92" width="4" height="2"/><rect class="cls-1" y="38.74" width="2" height="4"/><rect class="cls-1" x="8.18" y="32.92" width="4" height="2"/><rect class="cls-1" x="24.18" y="32.92" width="4" height="2"/><rect class="cls-1" y="46.74" width="2" height="4"/><rect class="cls-1" x="16.18" y="32.92" width="4" height="2"/><rect class="cls-1" x="23.09" y="71.65" width="4" height="2"/><rect class="cls-1" x="91.89" y="170.32" width="4" height="2"/><rect class="cls-1" x="75.89" y="170.32" width="4" height="2"/><rect class="cls-1" x="91.9" y="131.59" width="4" height="2"/><rect class="cls-1" x="86.21" y="104.53" width="4" height="2"/><polygon class="cls-1" points="48.26 106.53 50.21 106.53 50.21 105.53 50.26 105.53 50.26 102.48 48.26 102.48 48.26 106.53"/><rect class="cls-1" x="83.9" y="131.59" width="4" height="2"/><rect class="cls-1" x="83.89" y="170.32" width="4" height="2"/><rect class="cls-1" x="99.89" y="170.32" width="4" height="2"/><rect class="cls-1" x="96.52" y="126.21" width="2" height="4"/><polygon class="cls-1" points="94.21 106.53 97.52 106.53 97.52 106.21 98.52 106.21 98.52 104.53 94.21 104.53 94.21 106.53"/><rect class="cls-1" x="107.89" y="170.32" width="4" height="2"/><rect class="cls-1" x="96.52" y="110.21" width="2" height="4"/><rect class="cls-1" x="96.52" y="118.21" width="2" height="4"/><rect class="cls-1" x="78.21" y="104.53" width="4" height="2"/><rect class="cls-1" x="48.26" y="78.48" width="2" height="4"/><polygon class="cls-1" points="47.09 73.65 48.26 73.65 48.26 74.48 50.26 74.48 50.26 71.65 47.09 71.65 47.09 73.65"/><rect class="cls-1" x="51.89" y="170.32" width="4" height="2"/><rect class="cls-1" x="48.26" y="94.48" width="2" height="4"/><rect class="cls-1" x="54.21" y="104.53" width="4" height="2"/><rect class="cls-1" x="48.26" y="86.48" width="2" height="4"/><rect class="cls-1" x="59.9" y="131.59" width="4" height="2"/><rect class="cls-1" x="75.9" y="131.59" width="4" height="2"/><rect class="cls-1" x="67.9" y="131.59" width="4" height="2"/><rect class="cls-1" x="70.21" y="104.53" width="4" height="2"/><rect class="cls-1" x="67.89" y="170.32" width="4" height="2"/><rect class="cls-1" x="62.21" y="104.53" width="4" height="2"/><rect class="cls-1" x="59.89" y="170.32" width="4" height="2"/><rect class="cls-1" x="244.95" y="65.79" width="4" height="2"/><rect class="cls-1" x="115.89" y="170.32" width="4" height="2"/><rect class="cls-1" x="239.26" width="4" height="2"/><rect class="cls-1" x="236.95" y="65.79" width="4" height="2"/><rect class="cls-1" x="247.95" y="68.9" width="2" height="4"/><rect class="cls-1" x="237.36" y="38.73" width="4" height="2"/><rect class="cls-1" x="247.95" y="76.9" width="2" height="4"/><rect class="cls-1" x="231.26" width="4" height="2"/><rect class="cls-1" x="220.95" y="65.79" width="4" height="2"/><rect class="cls-1" x="223.26" width="4" height="2"/><rect class="cls-1" x="221.36" y="38.73" width="4" height="2"/><rect class="cls-1" x="228.95" y="65.79" width="4" height="2"/><rect class="cls-1" x="247.95" y="92.9" width="2" height="4"/><rect class="cls-1" x="229.36" y="38.73" width="4" height="2"/><rect class="cls-1" x="250.17" y="98.67" width="4" height="2"/><rect class="cls-1" x="266.17" y="98.67" width="4" height="2"/><rect class="cls-1" x="258.17" y="98.67" width="4" height="2"/><rect class="cls-1" x="274.17" y="98.67" width="4" height="2"/><rect class="cls-1" x="247.95" y="84.9" width="2" height="4"/><rect class="cls-1" x="282.17" y="98.67" width="4" height="2"/><rect class="cls-1" x="290.17" y="98.67" width="4" height="2"/><rect class="cls-1" x="213.36" y="38.73" width="4" height="2"/><rect class="cls-1" x="96.18" y="32.92" width="4" height="2"/><polygon class="cls-1" points="249.95 39.32 248.95 39.32 248.95 38.73 245.36 38.73 245.36 40.73 249.95 40.73 249.95 39.32"/><rect class="cls-1" x="247.95" y="15.32" width="2" height="4"/><rect class="cls-1" x="247.95" y="7.32" width="2" height="4"/><rect class="cls-1" x="247.95" y="23.32" width="2" height="4"/><rect class="cls-1" x="247.95" y="31.32" width="2" height="4"/><polygon class="cls-1" points="247.95 3.32 249.95 3.32 249.95 0 247.26 0 247.26 2 247.95 2 247.95 3.32"/><polygon class="cls-1" points="146.75 2 147.26 2 147.26 0 144.75 0 144.75 3.48 146.75 3.48 146.75 2"/><rect class="cls-1" x="144.75" y="7.48" width="2" height="4"/><rect class="cls-1" x="144.75" y="23.48" width="2" height="4"/><rect class="cls-1" x="144.75" y="15.48" width="2" height="4"/><rect class="cls-1" x="159.26" width="4" height="2"/><rect class="cls-1" x="151.26" width="4" height="2"/><rect class="cls-1" x="120.18" y="32.92" width="4" height="2"/><rect class="cls-1" x="112.18" y="32.92" width="4" height="2"/><rect class="cls-1" x="167.26" width="4" height="2"/><polygon class="cls-1" points="108.18 34.92 108.18 32.92 104.18 32.92 104.2 34.92 108.18 34.92"/><rect class="cls-1" x="128.18" y="32.92" width="4" height="2"/><polygon class="cls-1" points="146.75 31.48 144.75 31.48 144.75 32.92 144.18 32.92 144.18 34.92 146.75 34.92 146.75 31.48"/><rect class="cls-1" x="136.18" y="32.92" width="4" height="2"/><rect class="cls-1" x="205.36" y="38.73" width="4" height="2"/><rect class="cls-1" x="207.26" width="4" height="2"/><rect class="cls-1" x="175.26" width="4" height="2"/><rect class="cls-1" x="199.68" y="47.06" width="2" height="4"/><rect class="cls-1" x="204.95" y="65.79" width="4" height="2"/><rect class="cls-1" x="212.95" y="65.79" width="4" height="2"/><rect class="cls-1" x="215.26" width="4" height="2"/><polygon class="cls-1" points="199.68 38.73 199.68 43.05 201.68 43.05 201.68 39.73 201.36 39.73 201.36 38.73 199.68 38.73"/><rect class="cls-1" x="183.26" width="4" height="2"/><rect class="cls-1" x="191.26" width="4" height="2"/><rect class="cls-1" x="199.26" width="4" height="2"/><polygon class="cls-1" points="199.68 67.79 200.95 67.79 200.95 66.79 201.68 66.79 201.68 63.05 199.68 63.05 199.68 67.79"/><rect class="cls-1" x="199.68" y="55.06" width="2" height="4"/><polygon class="cls-1" points="0 34.74 1 34.74 1 34.92 4.18 34.92 4.18 32.92 0 32.92 0 34.74"/><rect class="cls-1" x="219.89" y="170.32" width="4" height="2"/><rect class="cls-1" x="247.95" y="164.37" width="2" height="4"/><rect class="cls-1" x="123.89" y="170.32" width="4" height="2"/><rect class="cls-1" x="247.95" y="156.37" width="2" height="4"/><rect class="cls-1" x="163.89" y="170.32" width="4" height="2"/><rect class="cls-1" x="247.95" y="148.37" width="2" height="4"/><rect class="cls-1" x="247.95" y="140.37" width="2" height="4"/><rect class="cls-1" x="203.89" y="170.32" width="4" height="2"/><rect class="cls-1" x="131.89" y="170.32" width="4" height="2"/><rect class="cls-1" x="235.89" y="170.32" width="4" height="2"/><rect class="cls-1" x="139.89" y="170.32" width="4" height="2"/><rect class="cls-1" x="243.89" y="170.32" width="4" height="2"/><rect class="cls-1" x="147.89" y="170.32" width="4" height="2"/><rect class="cls-1" x="155.89" y="170.32" width="4" height="2"/><rect class="cls-1" x="227.89" y="170.32" width="4" height="2"/><rect class="cls-1" x="211.89" y="170.32" width="4" height="2"/><rect class="cls-1" x="290.98" y="137.4" width="4" height="2"/><rect class="cls-1" x="296.21" y="100.64" width="2" height="4"/><rect class="cls-1" x="296.21" y="108.64" width="2" height="4"/><rect class="cls-1" x="274.98" y="137.4" width="4" height="2"/><rect class="cls-1" x="282.98" y="137.4" width="4" height="2"/><rect class="cls-1" x="296.21" y="132.64" width="2" height="4"/><rect class="cls-1" x="195.89" y="170.32" width="4" height="2"/><rect class="cls-1" x="296.21" y="124.64" width="2" height="4"/><rect class="cls-1" x="296.21" y="116.64" width="2" height="4"/><rect class="cls-1" x="250.98" y="137.4" width="4" height="2"/><rect class="cls-1" x="266.98" y="137.4" width="4" height="2"/><rect class="cls-1" x="179.89" y="170.32" width="4" height="2"/><rect class="cls-1" x="187.89" y="170.32" width="4" height="2"/><rect class="cls-1" x="258.98" y="137.4" width="4" height="2"/><rect class="cls-1" x="171.89" y="170.32" width="4" height="2"/><rect class="cls-1" x="189.44" y="98.67" width="4" height="2"/><rect class="cls-1" x="174.12" y="71.65" width="4" height="2"/><rect class="cls-1" x="173.44" y="98.67" width="4" height="2"/><rect class="cls-1" x="181.44" y="98.67" width="4" height="2"/><rect class="cls-1" x="182.12" y="71.65" width="4" height="2"/><rect class="cls-1" x="190.12" y="71.65" width="4" height="2"/><rect class="cls-1" x="166.12" y="71.65" width="4" height="2"/><rect class="cls-1" x="151.46" y="80.65" width="2" height="4"/><polygon class="cls-1" points="153.46 73.65 154.12 73.65 154.12 71.65 151.46 71.65 151.46 76.65 153.46 76.65 153.46 73.65"/><rect class="cls-1" x="197.44" y="98.67" width="4" height="2"/><polygon class="cls-1" points="151.46 100.67 153.44 100.67 153.46 96.65 151.46 96.65 151.46 100.67"/><rect class="cls-1" x="165.44" y="98.67" width="4" height="2"/><rect class="cls-1" x="157.44" y="98.67" width="4" height="2"/><rect class="cls-1" x="158.12" y="71.65" width="4" height="2"/><rect class="cls-1" x="151.46" y="88.65" width="2" height="4"/><rect class="cls-1" x="229.44" y="98.67" width="4" height="2"/><rect class="cls-1" x="214.12" y="71.65" width="4" height="2"/><rect class="cls-1" x="206.12" y="71.65" width="4" height="2"/><rect class="cls-1" x="221.44" y="98.67" width="4" height="2"/><rect class="cls-1" x="241.27" y="76.5" width="2" height="4"/><rect class="cls-1" x="230.12" y="71.65" width="4" height="2"/><rect class="cls-1" x="222.12" y="71.65" width="4" height="2"/><rect class="cls-1" x="238.12" y="71.65" width="4" height="2"/><rect class="cls-1" x="237.44" y="98.67" width="4" height="2"/><rect class="cls-1" x="205.44" y="98.67" width="4" height="2"/><rect class="cls-1" x="213.44" y="98.67" width="4" height="2"/><rect class="cls-1" x="241.27" y="92.5" width="2" height="4"/><rect class="cls-1" x="198.12" y="71.65" width="4" height="2"/><rect class="cls-1" x="241.27" y="84.5" width="2" height="4"/><rect class="cls-1" x="203.14" y="5.86" width="4" height="2"/><rect class="cls-1" x="219.14" y="5.86" width="4" height="2"/><rect class="cls-1" x="151.46" y="24.18" width="2" height="4"/><rect class="cls-1" x="224.46" y="32.92" width="4" height="2"/><rect class="cls-1" x="241.27" y="7.72" width="2" height="4"/><rect class="cls-1" x="151.46" y="8.18" width="2" height="4"/><rect class="cls-1" x="235.14" y="5.86" width="4" height="2"/><rect class="cls-1" x="232.46" y="32.92" width="4" height="2"/><rect class="cls-1" x="195.14" y="5.86" width="4" height="2"/><polygon class="cls-1" points="151.46 34.92 156.46 34.92 156.46 32.92 153.46 32.92 153.46 32.18 151.46 32.18 151.46 34.92"/><rect class="cls-1" x="192.46" y="32.92" width="4" height="2"/><rect class="cls-1" x="227.14" y="5.86" width="4" height="2"/><rect class="cls-1" x="211.14" y="5.86" width="4" height="2"/><rect class="cls-1" x="171.14" y="5.86" width="4" height="2"/><polygon class="cls-1" points="241.27 32.92 240.46 32.92 240.46 34.92 243.27 34.92 243.27 31.72 241.27 31.72 241.27 32.92"/><rect class="cls-1" x="176.46" y="32.92" width="4" height="2"/><rect class="cls-1" x="179.14" y="5.86" width="4" height="2"/><rect class="cls-1" x="187.14" y="5.86" width="4" height="2"/><rect class="cls-1" x="184.46" y="32.92" width="4" height="2"/><rect class="cls-1" x="208.46" y="32.92" width="4" height="2"/><rect class="cls-1" x="160.46" y="32.92" width="4" height="2"/><rect class="cls-1" x="241.27" y="23.72" width="2" height="4"/><rect class="cls-1" x="241.27" y="15.72" width="2" height="4"/><rect class="cls-1" x="155.14" y="5.86" width="4" height="2"/><rect class="cls-1" x="200.46" y="32.92" width="4" height="2"/><rect class="cls-1" x="168.46" y="32.92" width="4" height="2"/><rect class="cls-1" x="216.46" y="32.92" width="4" height="2"/><rect class="cls-1" x="163.14" y="5.86" width="4" height="2"/><rect class="cls-1" x="151.46" y="16.18" width="2" height="4"/><rect class="cls-1" x="125.93" y="38.73" width="4" height="2"/><rect class="cls-1" x="149.14" y="65.79" width="4" height="2"/><rect class="cls-1" x="125.14" y="65.79" width="4" height="2"/><rect class="cls-1" x="141.14" y="65.79" width="4" height="2"/><rect class="cls-1" x="141.93" y="38.73" width="4" height="2"/><rect class="cls-1" x="133.93" y="38.73" width="4" height="2"/><rect class="cls-1" x="117.93" y="38.73" width="4" height="2"/><rect class="cls-1" x="133.14" y="65.79" width="4" height="2"/><polygon class="cls-1" points="105.2 40.73 105.93 40.73 105.93 38.73 103.2 38.73 103.2 43.73 105.2 43.73 105.2 40.73"/><rect class="cls-1" x="117.14" y="65.79" width="4" height="2"/><rect class="cls-1" x="103.2" y="55.73" width="2" height="4"/><rect class="cls-1" x="103.2" y="47.73" width="2" height="4"/><rect class="cls-1" x="109.93" y="38.73" width="4" height="2"/><rect class="cls-1" x="109.14" y="65.79" width="4" height="2"/><rect class="cls-1" x="193.01" y="51.66" width="2" height="4"/><rect class="cls-1" x="149.93" y="38.73" width="4" height="2"/><polygon class="cls-1" points="105.14 66.79 105.2 66.79 105.2 63.73 103.2 63.73 103.2 67.79 105.14 67.79 105.14 66.79"/><rect class="cls-1" x="181.93" y="38.73" width="4" height="2"/><rect class="cls-1" x="181.14" y="65.79" width="4" height="2"/><rect class="cls-1" x="193.01" y="59.66" width="2" height="4"/><rect class="cls-1" x="189.14" y="65.79" width="4" height="2"/><rect class="cls-1" x="193.01" y="43.66" width="2" height="4"/><rect class="cls-1" x="165.93" y="38.73" width="4" height="2"/><rect class="cls-1" x="157.14" y="65.79" width="4" height="2"/><rect class="cls-1" x="173.14" y="65.79" width="4" height="2"/><rect class="cls-1" x="157.93" y="38.73" width="4" height="2"/><rect class="cls-1" x="173.93" y="38.73" width="4" height="2"/><rect class="cls-1" x="165.14" y="65.79" width="4" height="2"/><rect class="cls-1" x="189.93" y="38.73" width="4" height="2"/><rect class="cls-1" x="18.43" y="38.73" width="4" height="2"/><rect class="cls-1" x="15.68" y="65.79" width="4" height="2"/><rect class="cls-1" x="50.43" y="38.73" width="4" height="2"/><rect class="cls-1" x="23.68" y="65.79" width="4" height="2"/><rect class="cls-1" x="55.68" y="65.79" width="4" height="2"/><rect class="cls-1" x="74.43" y="38.73" width="4" height="2"/><rect class="cls-1" x="58.43" y="38.73" width="4" height="2"/><rect class="cls-1" x="26.43" y="38.73" width="4" height="2"/><rect class="cls-1" x="6.68" y="48.98" width="2" height="4"/><rect class="cls-1" x="10.43" y="38.73" width="4" height="2"/><rect class="cls-1" x="47.68" y="65.79" width="4" height="2"/><rect class="cls-1" x="6.68" y="40.98" width="2" height="4"/><rect class="cls-1" x="6.68" y="56.98" width="2" height="4"/><rect class="cls-1" x="31.68" y="65.79" width="4" height="2"/><rect class="cls-1" x="42.43" y="38.73" width="4" height="2"/><rect class="cls-1" x="34.43" y="38.73" width="4" height="2"/><rect class="cls-1" x="39.68" y="65.79" width="4" height="2"/><rect class="cls-1" x="63.68" y="65.79" width="4" height="2"/><polygon class="cls-1" points="98.52 64.64 96.52 64.64 96.52 65.79 95.68 65.79 95.68 67.79 98.52 67.79 98.52 64.64"/><rect class="cls-1" x="79.68" y="65.79" width="4" height="2"/><rect class="cls-1" x="96.52" y="40.64" width="2" height="4"/><rect class="cls-1" x="96.52" y="48.64" width="2" height="4"/><rect class="cls-1" x="87.68" y="65.79" width="4" height="2"/><rect class="cls-1" x="90.43" y="38.73" width="4" height="2"/><rect class="cls-1" x="66.43" y="38.73" width="4" height="2"/><rect class="cls-1" x="96.52" y="56.64" width="2" height="4"/><polygon class="cls-1" points="8.68 64.98 6.68 64.98 6.68 67.79 11.68 67.79 11.68 65.79 8.68 65.79 8.68 64.98"/><rect class="cls-1" x="82.43" y="38.73" width="4" height="2"/><rect class="cls-1" x="71.68" y="65.79" width="4" height="2"/><rect class="cls-1" x="107.33" y="98.67" width="4" height="2"/><rect class="cls-1" x="115.33" y="98.67" width="4" height="2"/><rect class="cls-1" x="139.33" y="98.67" width="4" height="2"/><rect class="cls-1" x="77.52" y="71.65" width="4" height="2"/><rect class="cls-1" x="119.18" y="71.65" width="4" height="2"/><rect class="cls-1" x="83.33" y="98.67" width="4" height="2"/><rect class="cls-1" x="59.33" y="98.67" width="4" height="2"/><rect class="cls-1" x="111.18" y="71.65" width="4" height="2"/><rect class="cls-1" x="127.18" y="71.65" width="4" height="2"/><rect class="cls-1" x="85.52" y="71.65" width="4" height="2"/><rect class="cls-1" x="131.33" y="98.67" width="4" height="2"/><rect class="cls-1" x="91.33" y="98.67" width="4" height="2"/><rect class="cls-1" x="144.75" y="86.08" width="2" height="4"/><polygon class="cls-1" points="56.94 73.65 57.52 73.65 57.52 71.65 54.94 71.65 54.94 75.07 56.94 75.07 56.94 73.65"/><rect class="cls-1" x="54.94" y="79.07" width="2" height="4"/><rect class="cls-1" x="99.33" y="98.67" width="4" height="2"/><rect class="cls-1" x="75.33" y="98.67" width="4" height="2"/><rect class="cls-1" x="135.18" y="71.65" width="4" height="2"/><rect class="cls-1" x="54.94" y="95.07" width="2" height="4"/><rect class="cls-1" x="61.52" y="71.65" width="4" height="2"/><rect class="cls-1" x="67.33" y="98.67" width="4" height="2"/><rect class="cls-1" x="103.18" y="71.65" width="4" height="2"/><rect class="cls-1" x="54.94" y="87.07" width="2" height="4"/><rect class="cls-1" x="93.52" y="71.65" width="5.66" height="2"/><rect class="cls-1" x="144.75" y="94.08" width="2" height="4"/><rect class="cls-1" x="123.33" y="98.67" width="4" height="2"/><rect class="cls-1" x="69.52" y="71.65" width="4" height="2"/><polygon class="cls-1" points="146.75 71.65 143.18 71.65 143.18 73.65 144.75 73.65 144.75 74.08 146.75 74.08 146.75 71.65"/><rect class="cls-1" x="144.75" y="78.08" width="2" height="4"/><rect class="cls-1" x="76.88" y="164.46" width="4" height="2"/><rect class="cls-1" x="68.88" y="164.46" width="4" height="2"/><rect class="cls-1" x="54.94" y="154.4" width="2" height="4"/><rect class="cls-1" x="144.75" y="158.33" width="2" height="4"/><rect class="cls-1" x="69.67" y="137.4" width="4" height="2"/><rect class="cls-1" x="54.94" y="146.4" width="2" height="4"/><polygon class="cls-1" points="54.94 166.46 56.88 166.46 56.88 165.46 56.94 165.46 56.94 162.41 54.94 162.41 54.94 166.46"/><rect class="cls-1" x="141.67" y="137.4" width="4" height="2"/><rect class="cls-1" x="61.67" y="137.4" width="4" height="2"/><rect class="cls-1" x="133.67" y="137.4" width="4" height="2"/><rect class="cls-1" x="140.88" y="164.46" width="4" height="2"/><rect class="cls-1" x="60.88" y="164.46" width="4" height="2"/><rect class="cls-1" x="116.88" y="164.46" width="4" height="2"/><polygon class="cls-1" points="54.94 142.41 56.94 142.41 56.94 139.41 57.67 139.41 57.67 137.41 54.94 137.41 54.94 142.41"/><rect class="cls-1" x="84.88" y="164.46" width="4" height="2"/><rect class="cls-1" x="92.88" y="164.46" width="4" height="2"/><rect class="cls-1" x="125.67" y="137.4" width="4" height="2"/><rect class="cls-1" x="85.67" y="137.4" width="4" height="2"/><rect class="cls-1" x="93.67" y="137.4" width="4" height="2"/><rect class="cls-1" x="100.88" y="164.46" width="4" height="2"/><rect class="cls-1" x="101.67" y="137.4" width="4" height="2"/><rect class="cls-1" x="117.67" y="137.4" width="4" height="2"/><rect class="cls-1" x="124.88" y="164.46" width="4" height="2"/><rect class="cls-1" x="109.67" y="137.4" width="4" height="2"/><rect class="cls-1" x="144.75" y="142.33" width="2" height="4"/><rect class="cls-1" x="144.75" y="150.33" width="2" height="4"/><rect class="cls-1" x="77.67" y="137.4" width="4" height="2"/><rect class="cls-1" x="132.88" y="164.46" width="4" height="2"/><rect class="cls-1" x="108.88" y="164.46" width="4" height="2"/><rect class="cls-1" x="103.2" y="119.98" width="2" height="4"/><polygon class="cls-1" points="103.2 107.98 105.2 107.98 105.2 106.53 105.75 106.53 105.75 104.53 103.2 104.53 103.2 107.98"/><rect class="cls-1" x="133.75" y="104.53" width="4" height="2"/><rect class="cls-1" x="103.2" y="127.98" width="2" height="4"/><rect class="cls-1" x="103.2" y="111.98" width="2" height="4"/><rect class="cls-1" x="107.6" y="131.59" width="4" height="2"/><rect class="cls-1" x="131.6" y="131.59" width="4" height="2"/><rect class="cls-1" x="109.75" y="104.53" width="4" height="2"/><rect class="cls-1" x="123.6" y="131.59" width="4" height="2"/><rect class="cls-1" x="115.6" y="131.59" width="4" height="2"/><rect class="cls-1" x="125.75" y="104.53" width="4" height="2"/><rect class="cls-1" x="117.75" y="104.53" width="4" height="2"/><rect class="cls-1" x="141.75" y="104.53" width="5.73" height="2"/><rect class="cls-1" x="147.6" y="131.59" width="4" height="2"/><polygon class="cls-1" points="195.01 104.53 191.48 104.53 191.48 106.53 193.01 106.53 193.01 107 195.01 107 195.01 104.53"/><rect class="cls-1" x="175.48" y="104.53" width="4" height="2"/><rect class="cls-1" x="155.6" y="131.59" width="4" height="2"/><rect class="cls-1" x="151.48" y="104.53" width="4" height="2"/><rect class="cls-1" x="193.01" y="127" width="2" height="4"/><rect class="cls-1" x="159.48" y="104.53" width="4" height="2"/><rect class="cls-1" x="171.6" y="131.59" width="4" height="2"/><rect class="cls-1" x="193.01" y="111" width="2" height="4"/><rect class="cls-1" x="139.6" y="131.59" width="4" height="2"/><rect class="cls-1" x="193.01" y="119" width="2" height="4"/><rect class="cls-1" x="167.48" y="104.53" width="4" height="2"/><rect class="cls-1" x="179.6" y="131.59" width="4" height="2"/><rect class="cls-1" x="163.6" y="131.59" width="4" height="2"/><rect class="cls-1" x="183.48" y="104.53" width="4" height="2"/><rect class="cls-1" x="187.6" y="131.59" width="4" height="2"/><rect class="cls-1" x="190.01" y="137.4" width="5.73" height="2"/><rect class="cls-1" x="179.86" y="164.46" width="4" height="2"/><rect class="cls-1" x="211.86" y="164.46" width="4" height="2"/><rect class="cls-1" x="219.86" y="164.46" width="4" height="2"/><rect class="cls-1" x="215.74" y="137.4" width="4" height="2"/><rect class="cls-1" x="223.74" y="137.4" width="4" height="2"/><rect class="cls-1" x="207.74" y="137.4" width="4" height="2"/><rect class="cls-1" x="163.86" y="164.46" width="4" height="2"/><rect class="cls-1" x="182.01" y="137.4" width="4" height="2"/><rect class="cls-1" x="199.74" y="137.4" width="4" height="2"/><rect class="cls-1" x="195.86" y="164.46" width="4" height="2"/><rect class="cls-1" x="203.86" y="164.46" width="4" height="2"/><rect class="cls-1" x="187.86" y="164.46" width="4" height="2"/><rect class="cls-1" x="174.01" y="137.4" width="4" height="2"/><rect class="cls-1" x="166.01" y="137.4" width="4" height="2"/><rect class="cls-1" x="151.46" y="160.86" width="2" height="4"/><rect class="cls-1" x="241.27" y="159.88" width="2" height="4"/><rect class="cls-1" x="231.74" y="137.4" width="4" height="2"/><rect class="cls-1" x="235.86" y="164.46" width="4" height="2"/><rect class="cls-1" x="241.27" y="151.88" width="2" height="4"/><rect class="cls-1" x="241.27" y="143.88" width="2" height="4"/><polygon class="cls-1" points="239.74 139.41 241.27 139.41 241.27 139.88 243.27 139.88 243.27 137.41 239.74 137.41 239.74 139.41"/><rect class="cls-1" x="171.86" y="164.46" width="4" height="2"/><rect class="cls-1" x="158.01" y="137.4" width="4" height="2"/><polygon class="cls-1" points="151.46 140.86 153.46 140.86 153.46 139.41 154.01 139.41 154.01 137.41 151.46 137.41 151.46 140.86"/><rect class="cls-1" x="151.46" y="144.86" width="2" height="4"/><rect class="cls-1" x="227.86" y="164.46" width="4" height="2"/><rect class="cls-1" x="151.46" y="152.86" width="2" height="4"/><rect class="cls-1" x="155.86" y="164.46" width="4" height="2"/><rect class="cls-1" x="270.5" y="104.53" width="4" height="2"/><rect class="cls-1" x="269.63" y="131.59" width="4" height="2"/><rect class="cls-1" x="289.53" y="125.49" width="2" height="4"/><rect class="cls-1" x="289.53" y="117.49" width="2" height="4"/><rect class="cls-1" x="289.53" y="109.49" width="2" height="4"/><rect class="cls-1" x="262.5" y="104.53" width="4" height="2"/><rect class="cls-1" x="286.5" y="104.53" width="4" height="2"/><rect class="cls-1" x="278.5" y="104.53" width="4" height="2"/><rect class="cls-1" x="277.63" y="131.59" width="4" height="2"/><rect class="cls-1" x="285.63" y="131.59" width="4" height="2"/><rect class="cls-1" x="245.63" y="131.59" width="4" height="2"/><rect class="cls-1" x="214.5" y="104.53" width="4" height="2"/><rect class="cls-1" x="213.63" y="131.59" width="4" height="2"/><rect class="cls-1" x="222.5" y="104.53" width="4" height="2"/><rect class="cls-1" x="205.63" y="131.59" width="4" height="2"/><polygon class="cls-1" points="201.63 132.59 201.68 132.59 201.68 129.53 199.68 129.53 199.68 133.59 201.63 133.59 201.63 132.59"/><rect class="cls-1" x="199.68" y="121.53" width="2" height="4"/><rect class="cls-1" x="206.5" y="104.53" width="4" height="2"/><rect class="cls-1" x="221.63" y="131.59" width="4" height="2"/><polygon class="cls-1" points="201.68 106.53 202.5 106.53 202.5 104.53 199.68 104.53 199.68 109.53 201.68 109.53 201.68 106.53"/><rect class="cls-1" x="229.63" y="131.59" width="4" height="2"/><rect class="cls-1" x="230.5" y="104.53" width="4" height="2"/><rect class="cls-1" x="238.5" y="104.53" width="4" height="2"/><rect class="cls-1" x="254.5" y="104.53" width="4" height="2"/><rect class="cls-1" x="199.68" y="113.53" width="2" height="4"/><rect class="cls-1" x="237.63" y="131.59" width="4" height="2"/><rect class="cls-1" x="261.63" y="131.59" width="4" height="2"/><rect class="cls-1" x="246.5" y="104.53" width="4" height="2"/><rect class="cls-1" x="253.63" y="131.59" width="4" height="2"/></g></g></svg>