<svg xmlns="http://www.w3.org/2000/svg" viewBox="0 0 404.76 143.14"><defs><style>.cls-1{fill:#333;}</style></defs><title>Asset 2</title><g id="Layer_2" data-name="Layer 2"><g id="Lager_1" data-name="Lager 1"><path class="cls-1" d="M46.31,37.41A15.74,15.74,0,0,0,53.38,31a18.85,18.85,0,0,0,2.43-9.65q0-10.17-6.92-15.12T27.79,1.29H.44V11H10V69.35H.44v9.7H27.38q16.2,0,24.33-5.81t8.12-16.9a19.72,19.72,0,0,0-3.48-11.68A20,20,0,0,0,46.31,37.41ZM21.7,11h7.69q7.06,0,10.94,2.76T44.2,22q0,11.72-14.71,11.71H21.7ZM45.1,64.78a13.37,13.37,0,0,1-7.3,3.71,63,63,0,0,1-11.45.86H21.7v-26h7.48q9.6,0,14.17,3.17t4.56,9.63C47.91,60,47,62.87,45.1,64.78Z"/><path class="cls-1" d="M143.91,61a42,42,0,0,0,5.24-21.1,41,41,0,0,0-5.09-20.38A36.89,36.89,0,0,0,129.75,5.24,42.28,42.28,0,0,0,108.54,0,41.14,41.14,0,0,0,88,5.08,36.71,36.71,0,0,0,73.84,19.19a40.85,40.85,0,0,0-5.13,20.54,42.92,42.92,0,0,0,5,20.87A36.66,36.66,0,0,0,87.8,75.1a40.4,40.4,0,0,0,20.64,5.24,43.24,43.24,0,0,0,21-5A36.38,36.38,0,0,0,143.91,61Zm-11-6.35a28,28,0,0,1-9.73,11.1A25.27,25.27,0,0,1,108.9,70a27.28,27.28,0,0,1-14.5-3.81,25.07,25.07,0,0,1-9.57-10.68A35.4,35.4,0,0,1,81.5,39.83a33.48,33.48,0,0,1,3.33-15,25.22,25.22,0,0,1,23.4-14.45,27,27,0,0,1,14.45,4,27.65,27.65,0,0,1,10,10.78,31,31,0,0,1,3.64,14.84A32.72,32.72,0,0,1,132.92,54.69Z"/><path class="cls-1" d="M229.33,69.35H217.51L213.38,64q4.65-5.56,7.8-16.56h8.15V37.92h-16a55.29,55.29,0,0,1-6,17.86L191.51,34.36a70.08,70.08,0,0,0,8.64-4.23A17.62,17.62,0,0,0,205.59,25a14.09,14.09,0,0,0,2.27-8.23,15.49,15.49,0,0,0-2.47-8.52,16.89,16.89,0,0,0-6.76-6,21.08,21.08,0,0,0-18.63,0,17.93,17.93,0,0,0-7,6.09,15.45,15.45,0,0,0-2.66,8.87q0,6.77,5.42,13.62-9,4-13.36,9.78A21.91,21.91,0,0,0,158,54.23a25.16,25.16,0,0,0,3.59,13.23,25.66,25.66,0,0,0,9.93,9.42,29.11,29.11,0,0,0,14.14,3.46q10.57,0,20.84-8.16l5.16,6.87h17.65Zm-45.82-58a8.43,8.43,0,0,1,6-2.12,7.9,7.9,0,0,1,6,2.17,7.09,7.09,0,0,1,2.06,5.06,7.24,7.24,0,0,1-2.6,5.52q-2.61,2.37-9.06,5.11A76.65,76.65,0,0,1,182,19.86a8.49,8.49,0,0,1-.8-3A7.21,7.21,0,0,1,183.51,11.3ZM187,70.58a17.44,17.44,0,0,1-8.88-2.32,16.91,16.91,0,0,1-8.56-14.81,13.94,13.94,0,0,1,3-8.9,25.12,25.12,0,0,1,9.06-6.63l18.94,26.42Q194.45,70.58,187,70.58Z"/><path class="cls-1" d="M304,47.78Q300.74,58.25,293.57,64a25.78,25.78,0,0,1-16.52,5.71,24.5,24.5,0,0,1-13.77-4.08,28.54,28.54,0,0,1-9.73-10.89A31.84,31.84,0,0,1,250,39.83a32.13,32.13,0,0,1,3.38-14.57,27.55,27.55,0,0,1,9.41-10.84,24.08,24.08,0,0,1,13.73-4.05,26.88,26.88,0,0,1,14.6,4.18,28.92,28.92,0,0,1,10.47,11.66h10.12V1.29h-9.91V9.85A39.88,39.88,0,0,0,290,2.53,37.67,37.67,0,0,0,276,0,39.29,39.29,0,0,0,256,5.08,35.79,35.79,0,0,0,242.2,19.4a43.67,43.67,0,0,0-5,21.05,41.71,41.71,0,0,0,4.88,20,37.27,37.27,0,0,0,33.72,19.89q13.73,0,23.91-7.15T314,53Z"/><path class="cls-1" d="M385.05,75.31A36.38,36.38,0,0,0,399.52,61a42,42,0,0,0,5.24-21.1,41,41,0,0,0-5.09-20.38A36.89,36.89,0,0,0,385.36,5.24,42.28,42.28,0,0,0,364.15,0a41.14,41.14,0,0,0-20.54,5.08,36.71,36.71,0,0,0-14.16,14.11,40.85,40.85,0,0,0-5.13,20.54,42.92,42.92,0,0,0,5,20.87,36.66,36.66,0,0,0,14.06,14.5,40.4,40.4,0,0,0,20.64,5.24A43.24,43.24,0,0,0,385.05,75.31ZM340.44,55.47a35.4,35.4,0,0,1-3.33-15.64,33.48,33.48,0,0,1,3.33-15,25.22,25.22,0,0,1,23.4-14.45,27,27,0,0,1,14.45,4,27.65,27.65,0,0,1,10,10.78A31,31,0,0,1,392,39.94a32.72,32.72,0,0,1-3.43,14.75,28,28,0,0,1-9.73,11.1A25.27,25.27,0,0,1,364.51,70,27.28,27.28,0,0,1,350,66.15,25.07,25.07,0,0,1,340.44,55.47Z"/><path class="cls-1" d="M82.11,111.45c-4.26,0-6.76,2.24-6.76,7.47v16.76c0,5.23,2.5,7.46,6.76,7.46s6.8-2.23,6.8-7.46v-5.05H85.4v5.54c0,2.45-1,3.68-3.16,3.68s-3.16-1.23-3.16-3.68V118.43c0-2.45.92-3.68,3.16-3.68s3.16,1.23,3.16,3.68V123h3.51v-4.12C88.91,113.69,86.41,111.45,82.11,111.45Z"/><polygon class="cls-1" points="115.86 125.02 109.5 125.02 109.5 111.94 105.77 111.94 105.77 142.66 109.5 142.66 109.5 128.26 115.86 128.26 115.86 142.66 119.6 142.66 119.6 111.94 115.86 111.94 115.86 125.02"/><path class="cls-1" d="M143.52,111.45c-4.39,0-6.89,2.24-6.89,7.47v16.76c0,5.23,2.5,7.46,6.89,7.46s6.89-2.23,6.89-7.46V118.92C150.41,113.69,147.86,111.45,143.52,111.45Zm3.16,24.72c0,2.45-1,3.68-3.16,3.68s-3.16-1.23-3.16-3.68V118.43c0-2.45.92-3.68,3.16-3.68s3.16,1.23,3.16,3.68Z"/><path class="cls-1" d="M173.59,111.45c-4.26,0-6.76,2.24-6.76,7.47v16.76c0,5.23,2.5,7.46,6.76,7.46s6.8-2.23,6.8-7.46v-5.05h-3.51v5.54c0,2.45-1,3.68-3.16,3.68s-3.16-1.23-3.16-3.68V118.43c0-2.45.92-3.68,3.16-3.68s3.16,1.23,3.16,3.68V123h3.51v-4.12C180.39,113.69,177.89,111.45,173.59,111.45Z"/><path class="cls-1" d="M203.52,111.45c-4.39,0-6.89,2.24-6.89,7.47v16.76c0,5.23,2.5,7.46,6.89,7.46s6.89-2.23,6.89-7.46V118.92C210.41,113.69,207.87,111.45,203.52,111.45Zm3.16,24.72c0,2.45-1,3.68-3.16,3.68s-3.16-1.23-3.16-3.68V118.43c0-2.45.93-3.68,3.16-3.68s3.16,1.23,3.16,3.68Z"/><polygon class="cls-1" points="231.18 111.94 227.45 111.94 227.45 142.66 237.98 142.66 237.98 139.41 231.18 139.41 231.18 111.94"/><path class="cls-1" d="M256.94,111.94l-5.31,30.72H255l.84-5h6.49l.88,5H267l-5.31-30.72Zm-.57,22.64,1.36-7.9c.49-2.8,1-6.18,1.37-10.4.39,4.22.87,7.6,1.36,10.4l1.36,7.9Z"/><polygon class="cls-1" points="279.11 115.19 283.81 115.19 283.81 142.66 287.54 142.66 287.54 115.19 292.24 115.19 292.24 111.94 279.11 111.94 279.11 115.19"/><polygon class="cls-1" points="311.42 128.26 317.69 128.26 317.69 125.02 311.42 125.02 311.42 115.19 318.49 115.19 318.49 111.94 307.69 111.94 307.69 142.66 318.7 142.66 318.7 139.41 311.42 139.41 311.42 128.26"/><rect class="cls-1" y="124.67" width="54.34" height="3.75"/><rect class="cls-1" x="346.27" y="124.67" width="54.34" height="3.75"/></g></g></svg>