
<svg width="377px" height="145px" viewBox="0 0 377 145" version="1.1" xmlns="http://www.w3.org/2000/svg" xmlns:xlink="http://www.w3.org/1999/xlink">
    <g id="Page-1" stroke="none" stroke-width="1" fill="none" fill-rule="evenodd">
        <g id="WORKS-–-1" transform="translate(-772.000000, -1292.000000)" fill="#040405" fill-rule="nonzero">
            <g id="WORKS_1" transform="translate(-1.000000, -1.000000)">
                <g id="Group_112" transform="translate(121.485000, 1180.344000)">
                    <g id="Group_111" transform="translate(652.000000, 112.000000)">
                        <path d="M234.308,56.935 C237.650256,53.5223753 239.482613,48.9108591 239.394,44.135 C239.38384,41.342692 238.624051,38.6043416 237.194,36.206 C235.715438,33.666012 233.37626,31.7394005 230.6,30.775 C235.138,28.649 237.407667,24.4823333 237.409,18.275 C237.517176,13.8843889 235.782262,9.64900873 232.625,6.596 C229.436333,3.46266667 224.393667,1.896 217.497,1.896 L189.055,1.896 L189.055,62.2360002 L218.621,62.2360002 C225.689,62.2366667 230.918,60.4696667 234.308,56.935 Z M202.156,14.135 L217.586,14.135 C221.896,14.135 224.051,16.0016667 224.051,19.735 C224.051,23.5276667 221.436667,25.4243333 216.208,25.425 L202.156,25.425 L202.156,14.135 Z M202.156,37.235 L216.9,37.235 C223.048,37.235 226.122667,39.4473333 226.124,43.872 C226.139979,45.4373789 225.553525,46.9489857 224.486,48.094 C223.393333,49.3033333 221.640333,49.907 219.227,49.905005 L202.156,49.905005 L202.156,37.235 Z" id="Path_1285"></path>
                        <path d="M265,35 C261.065698,34.8347074 257.205522,36.1056758 254.139,38.576 C251.321667,40.9626667 249.913333,44.4253333 249.914,48.964 C249.914667,53.5026667 251.164667,57.0226667 253.664,59.524 C256.164667,62.024 259.598,63.2736667 263.964,63.2730003 C266.662679,63.2577193 269.309382,62.5294618 271.636,61.162 C274.143029,59.7189623 276.293421,57.7305677 277.928,55.344 L277.928,62.239 L281.028,62.239 L281.028,31.379 C281.089315,28.9671493 280.678966,26.5665421 279.82,24.312 C279.158294,22.5468248 278.006942,21.0069473 276.501,19.873 C275.200794,18.9196041 273.741897,18.2042062 272.192,17.76 C270.63126,17.3473738 269.022299,17.145581 267.408,17.16 C262.808,17.16 257.980667,18.6266667 252.926,21.56 L253.875,24.231 C258.586333,21.4103333 263.011333,20 267.15,20 C270.025796,19.8549821 272.843475,20.8454434 274.996,22.758 C276.947333,24.598 277.924,27.9023333 277.926,32.671 L277.926,39.221 C274.127436,36.5709505 269.630481,35.1024646 265,35 Z M277.93,51.723 C273.676,57.527 269.021333,60.429 263.966,60.429 C261.031462,60.5689621 258.182252,59.4197809 256.166,57.283 C254.167025,54.9858597 253.132072,52.005669 253.277,48.964 C253.277,45.402 254.412333,42.658 256.683,40.732 C259.010498,38.7869195 261.968942,37.7601068 265.001,37.845 C269.645547,37.9533512 274.150352,39.4549529 277.931,42.155 L277.93,51.723 Z" id="Path_1286"></path>
                        <path d="M300.165,37.843 C300.165,32.0383333 301.458,27.714 304.044,24.87 C306.63,22.026 309.503,20.6036667 312.663,20.603 C314.68732,20.5467985 316.687423,21.0543544 318.44,22.069 L318.957,18.969 C317.633,17.7616667 315.679,17.1583333 313.095,17.1589994 C310.370558,17.1664023 307.728207,18.0922823 305.595,19.787 C303.091132,21.8279947 301.20989,24.5303321 300.165,27.587 L300.165,18.19 L297.065,18.19 L297.065,62.237 L300.165,62.237 L300.165,37.843 Z" id="Path_1287"></path>
                        <polygon id="Path_1288" points="240.516 82.761 224.741 82.761 202.156 111.292 202.156 82.761 189.056 82.761 189.056 143.1 202.156 143.1 202.156 130 213.621 115.69 228.362 143.103 243.7 143.103 222.5 104.658"></polygon>
                        <path d="M269.3,98.019 C264.313491,97.902095 259.571726,100.176715 256.542,104.139 C253.268,108.219667 251.630667,113.851 251.63,121.033 C251.629333,128.215 253.180667,133.861 256.284,137.971 C259.388,142.079 263.726667,144.134 269.3,144.136 C273.858857,144.191936 278.278319,142.565212 281.713,139.567 L279.904,137.326 C277.001318,139.743885 273.336714,141.056695 269.559,141.032 C260.249,141.032 255.393333,134.682 254.992,121.982 L285.247,121.982 L285.247,121.033 C285.247,113.332333 283.825,107.571667 280.981,103.751 C278.291821,100.006054 273.907525,97.85463 269.3,98.019 Z M255,119.136 C255.344,112.988 256.794333,108.405667 259.351,105.389 C261.793101,102.42382 265.468193,100.75329 269.308,100.863 C272.702849,100.88899 275.915919,102.400873 278.1,105 C280.629333,107.758 281.922333,112.47 281.979,119.136 L255,119.136 Z" id="Path_1289"></path>
                        <path d="M340.419,98.019 C337.505823,98.0123813 334.677619,99.0001539 332.402,100.819 C329.86646,102.867876 328.029577,105.653424 327.145,108.791 C326.456333,105.171 325.033667,102.471 322.877,100.691 C320.65204,98.8860812 317.853831,97.9384441 314.99,98.02 C309.302,98.02 305.193333,100.778333 302.664,106.295 L302.664,99.055 L299.564,99.055 L299.564,143.1 L302.664,143.1 L302.664,116.032 C302.664,111.436667 303.669333,107.773667 305.68,105.043 C307.690667,102.312333 310.650333,100.948 314.559,100.95 C321.741667,100.95 325.333667,105.776667 325.335,115.43 L325.335,143.1 L328.435,143.1 L328.435,115.43 C328.326677,111.751192 329.449327,108.141469 331.625,105.173 C333.591762,102.435894 336.788933,100.853607 340.158,100.95 C347.456667,100.95 351.106,105.776667 351.106,115.43 L351.106,143.1 L354.206,143.1 L354.206,112.843 C354.206,108.305 352.970333,104.699667 350.499,102.027 C348.027667,99.3543333 344.667667,98.0183333 340.419,98.019 Z" id="Path_1290"></path>
                        <rect id="Rectangle_267" x="371.794" y="99.053" width="3.104" height="44.047"></rect>
                        <path d="M375.157,84.141 C374.699577,83.6240735 374.0348,83.3390122 373.345,83.364 C372.67193,83.3567091 372.028372,83.6398601 371.579,84.141 C371.091907,84.6517046 370.828467,85.3354965 370.847,86.041 C370.847,87.4217119 371.966288,88.541 373.347,88.541 C374.028455,88.5683251 374.688676,88.3008846 375.159,87.807 C375.612619,87.3322598 375.860267,86.697504 375.848,86.041 C375.866171,85.343081 375.619269,84.6641905 375.157,84.141 L375.157,84.141 Z" id="Path_1291"></path>
                        <path d="M161.658,0.991999535 C159.979772,0.991999535 158.350611,1.55807155 157.035,2.6 L85.175,59.487 L19.636,59.487 L19.636,40.716 L0.154,40.116 L0.154,104.916 L19.636,105.516 L19.636,86.55 L85.18,86.55 L157.029,143.428 C160.247023,145.979091 164.922488,145.445532 167.483,142.235 L167.634,142.035 C168.588663,140.753709 169.102961,139.197836 169.100013,137.6 L169.100013,8.431 C169.094488,4.32366804 165.765334,0.995856061 161.658,0.991999535 L161.658,0.991999535 Z" id="Path_1292"></path>
                    </g>
                </g>
            </g>
        </g>
    </g>
</svg>