
<svg width="421px" height="55px" viewBox="0 0 421 55" version="1.1" xmlns="http://www.w3.org/2000/svg" xmlns:xlink="http://www.w3.org/1999/xlink">
    <g id="Page-1" stroke="none" stroke-width="1" fill="none" fill-rule="evenodd">
        <g id="ssr" transform="translate(-750.000000, -1380.000000)" fill="#FFFFFF" fill-rule="nonzero">
            <g id="WORKS_3" transform="translate(-1.000000, -1.000000)">
                <g id="Group_136" transform="translate(121.067000, 1222.344000)">
                    <g id="Group_135" transform="translate(630.000000, 159.000000)">
                        <path d="M40.416,7.268 C38.2614696,5.10228392 35.6977439,3.38667488 32.874,2.221 C30.0892219,1.06167695 27.1024579,0.465207814 24.086,0.465908649 C21.0325363,0.457415803 18.0076294,1.05390024 15.186,2.221 C12.3617634,3.38575244 9.79786562,5.10147668 7.644,7.268 C5.47876045,9.42151143 3.76467415,11.9851617 2.602,14.809 C1.4299475,17.6292647 0.831957989,20.654908 0.842849827,23.709 L0.842849827,31.417 C0.832091869,34.4710791 1.4300762,37.4966963 2.602,40.317 C3.76467415,43.1408383 5.47876045,45.7044886 7.644,47.858 C9.755604,50.0473862 12.3059672,51.7659166 15.128,52.901 C17.9698701,54.0698903 21.0141393,54.6675987 24.087,54.6601473 C27.1410817,54.6709349 30.1667041,54.0729495 32.987,52.901 C35.7867462,51.7542816 38.3168464,50.0367832 40.416,47.858 C42.5942297,45.7575461 44.3128057,43.2278649 45.463,40.429 C46.6291983,37.6071319 47.2253201,34.5823406 47.2170859,31.529 L47.2170859,23.71 C47.2253201,20.6566594 46.6291983,17.6318681 45.463,14.81 C44.295373,11.9872994 42.5800071,9.42393714 40.416,7.268 L40.416,7.268 Z M38.599,31.418 C38.6198866,33.9848446 37.9553545,36.5107568 36.674,38.735 C35.4103003,40.9411543 33.5914134,42.7783129 31.398,44.064 C29.1877185,45.3808748 26.658764,46.0667222 24.086,46.047 C21.4952386,46.0619797 18.9485395,45.3768482 16.715,44.064 C14.4970795,42.7919124 12.6575038,40.9526817 11.385,38.735 C10.1005735,36.5118385 9.43453187,33.9854379 9.456,31.418 L9.456,23.71 C9.39566502,19.8493667 10.9350405,16.1357547 13.709,13.45 C16.4322084,10.6600696 20.1880828,9.12072929 24.086,9.197 C27.9478556,9.13639439 31.6628079,10.6757253 34.35,13.45 C37.1212781,16.1372621 38.6589421,19.8502375 38.599,23.71 L38.599,31.418 Z" id="Path_1335"></path>
                        <polygon id="Path_1336" points="73.039 39.587 60.792 1.597 51.721 1.597 68.051 52.059 68.388 53.194 77.8 53.194 94.355 1.71 94.355 1.6 85.288 1.6"></polygon>
                        <polygon id="Path_1337" points="110.458 31.648 134.496 31.648 134.496 23.03 110.458 23.03 110.458 10.217 136.537 10.217 136.537 1.6 101.723 1.6 101.723 53.193 136.765 53.193 136.765 44.575 110.457 44.575"></polygon>
                        <path d="M183.593,16.681 C183.653226,12.7474862 182.143969,8.95203205 179.399,6.134 C176.701625,3.30674816 172.986845,1.67381415 169.08,1.598 L145.832,1.598 L145.832,53.198 L154.567,53.198 L154.567,31.647 L169.08,31.647 C170.665947,31.6119928 172.192332,32.2512571 173.28,33.406 C174.381409,34.4988878 174.99448,35.990454 174.98,37.542 L174.98,53.2 L183.598,53.2 L183.598,37.542 C183.636637,34.098538 182.429093,30.7571938 180.198,28.134 L179.405,27.224 L180.086,26.317 C182.383223,23.6356109 183.629352,20.2116881 183.593,16.681 Z M173.104,21.158 C171.934174,22.3733018 170.313709,23.0505164 168.627,23.029 L154.567,23.029 L154.567,10.216 L168.627,10.216 C170.313616,10.1949629 171.933898,10.8721012 173.104,12.087 C174.335677,13.2940084 175.01293,14.9569184 174.975,16.681 C174.995473,18.3683072 174.316774,19.9888608 173.1,21.158 L173.104,21.158 Z" id="Path_1338"></path>
                        <path d="M231.424,7.266 C229.268809,5.10255247 226.705611,3.38842869 223.883,2.223 C221.099038,1.0605495 218.111908,0.462647699 215.095,0.463896029 C212.041088,0.454826803 209.015809,1.05274419 206.195,2.223 C203.371832,3.38793608 200.808214,5.10211296 198.653,7.266 C196.486587,9.41957157 194.770869,11.9831201 193.606,14.807 C192.43721,17.6282196 191.839678,20.6532679 191.847914,23.707 L191.847914,31.415 C191.83997,34.468704 192.437491,37.4936956 193.606,40.315 C194.770884,43.1376937 196.486633,45.6999293 198.653,47.852 C200.76418,50.042411 203.314152,51.7622703 206.136,52.899 C208.978768,54.0660648 212.022998,54.6636988 215.096,54.6580963 C218.149879,54.6668274 221.17509,54.0689234 223.996,52.899 C226.796239,51.7513635 229.326418,50.0324499 231.425,47.852 C233.604774,45.7534735 235.322714,43.2232248 236.469,40.423 C237.638734,37.6020664 238.236304,34.5768268 238.227107,31.523 L238.227107,23.703 C238.235322,20.6492679 237.63779,17.6242196 236.469,14.803 C235.303433,11.9811571 233.588531,9.41917229 231.424,7.266 Z M229.608,31.42 C229.628367,33.9855145 228.963846,36.5100038 227.683,38.733 C226.419743,40.9405364 224.600835,42.7790958 222.407,44.066 C220.196779,45.38313 217.667845,46.0693178 215.095,46.05 C212.504088,46.0651237 209.957266,45.3796136 207.724,44.066 C205.50456,42.7941245 203.664626,40.9531552 202.394,38.733 C201.110083,36.5110853 200.444052,33.986108 200.465,31.42 L200.465,23.712 C200.404634,19.8501902 201.943927,16.1353294 204.718,13.448 C207.441481,10.6584744 211.197172,9.11920924 215.095,9.195 C218.956627,9.13559269 222.671122,10.6747342 225.359,13.448 C228.130191,16.1369724 229.667735,19.851106 229.608,23.712 L229.608,31.42 Z" id="Path_1339"></path>
                        <polygon id="Path_1340" points="264.046 39.586 251.8 1.6 242.729 1.6 259.059 52.062 259.4 53.197 268.812 53.197 285.362 1.717 285.362 1.6 276.295 1.6"></polygon>
                        <polygon id="Path_1341" points="301.466 31.648 325.5 31.648 325.5 23.03 301.462 23.03 301.462 10.217 327.541 10.217 327.541 1.6 292.727 1.6 292.727 53.193 327.769 53.193 327.769 44.575 301.462 44.575"></polygon>
                        <path d="M374.6,16.681 C374.658344,12.7478319 373.149363,8.95307288 370.406,6.134 C367.709279,3.30784536 363.995603,1.67564236 360.09,1.6 L336.842,1.6 L336.842,53.2 L345.577,53.2 L345.577,31.647 L360.09,31.647 C361.673956,31.6148042 363.197703,32.253725 364.285,33.406 C365.384868,34.4999175 365.997661,35.990805 365.985,37.542 L365.985,53.2 L374.603,53.2 L374.603,37.542 C374.641275,34.0985993 373.433776,30.7573779 371.203,28.134 L370.409,27.224 L371.086,26.317 C373.38711,23.637413 374.635958,20.2128552 374.6,16.681 L374.6,16.681 Z M364.112,21.158 C362.940221,22.3734692 361.318184,23.0505847 359.63,23.029 L345.574,23.029 L345.574,10.216 L359.63,10.216 C361.318091,10.1948937 362.939946,10.8719331 364.112,12.087 C365.343005,13.294383 366.019832,14.9571335 365.982,16.681 C366.004201,18.3670424 365.328528,19.9872816 364.115,21.158 L364.112,21.158 Z" id="Path_1342"></path>
                        <polygon id="Path_1343" points="415.657 1.348 410.082 16.797 404.503 1.348 400.167 1.348 400.167 22.148 403.651 22.148 403.651 6.928 409.076 22.148 411.088 22.148 416.509 6.891 416.509 22.148 419.993 22.148 419.993 1.348"></polygon>
                        <polygon id="Path_1344" points="382.163 4.484 387.892 4.484 387.892 22.144 391.417 22.144 391.417 4.484 397.108 4.484 397.108 1.35 382.163 1.35"></polygon>
                    </g>
                </g>
            </g>
        </g>
    </g>
</svg>