
<svg width="349px" height="319px" viewBox="0 0 349 319" version="1.1" xmlns="http://www.w3.org/2000/svg" xmlns:xlink="http://www.w3.org/1999/xlink">
    <g id="Page-1" stroke="none" stroke-width="1" fill="none" fill-rule="evenodd">
        <g id="WORKS-–-2" transform="translate(-786.000000, -1245.000000)" fill="#F0E0CB" fill-rule="nonzero">
            <g id="WORKS_2" transform="translate(-1.000000, -1.000000)">
                <g id="Group_131" transform="translate(1.000000, 1080.500000)">
                    <g id="Group_130" transform="translate(786.000000, 165.000000)">
                        <g id="Group_129">
                            <path d="M109.724,69.341 C110.813312,69.0339085 111.861313,68.5957025 112.845,68.036 C115.507,66.426 118.089,64.685 120.732,63.043 C121.633457,62.5136748 122.566167,62.0394721 123.525,61.623 C123.745491,61.5684966 123.9753,61.5633745 124.198,61.608 L122.273,64.694 C121.914,65.27 122.185,65.559 122.704,65.86 C123.909,66.56 125.104,67.275 126.248,68.07 C127.348,68.834 127.201,69.859 125.99,70.416 C125.786582,70.5305709 125.565591,70.6106548 125.336,70.653 C123.518,70.823 122.859,72.034 122.612,73.633 C122.586,73.804 122.512,73.968 122.486,74.138 C122.147,76.488 119.679,77.319 117.676,75.616 C116.789,74.862 115.93,74.073 115.023,73.343 C114.308579,72.6858133 113.241297,72.5918104 112.423,73.114 C111.322774,73.9386229 110.783066,75.3142186 111.029,76.667 C111.306,78.943 111.467,81.233 111.704,83.514 C111.729341,83.7652924 111.864867,83.9923904 112.074,84.134 C113.277541,84.6628869 114.612148,84.8182601 115.905,84.58 C116.796958,84.3554591 117.734923,84.3947147 118.605,84.693 C121.972692,85.9963859 124.377933,89.011821 124.9,92.585 C125.037454,93.6478729 125.286495,94.6933086 125.643,95.704 C125.843,96.231 126.243,96.692 126.103,97.29 C125.973817,97.9403291 125.772575,98.5742398 125.503,99.18 C124.568,101.061 125.244,102.708 126.178,104.63 C127.002987,103.870748 127.782663,103.063691 128.513,102.213 C130.103027,99.8691916 131.066926,97.1575368 131.313,94.336 C131.646,92.099 131.829,89.836 132.045,87.583 C132.295,84.983 132.445,82.367 132.759,79.772 C132.968071,77.8431806 133.312588,75.9314607 133.79,74.051 C134.259645,72.7729803 134.802887,71.5232226 135.417,70.308 C135.866779,69.3377425 136.184603,68.3116235 136.362,67.257 C136.492,66.057 136.024,65.22 134.246,64.557 C132.224,63.806 130.693,62.657 130.591,60.287 C130.533,58.934 130.453,57.58 130.463,56.228 C130.502715,54.1443487 131.227355,52.1317351 132.525,50.501 C133.625,49.037 134.713,47.564 135.765,46.066 C136.5,45.021 136.433,44.599 135.538,43.723 C135.345386,43.5468542 135.141992,43.3828704 134.929,43.232 C134.527358,43.0192392 134.2378,42.6426678 134.135346,42.1998515 C134.032892,41.7570352 134.127625,41.2915507 134.395,40.924 C134.714,40.303 135.073,39.702 135.395,39.081 C136.936,36.072 138.524,33.081 139.99,30.039 C140.994583,27.7347117 143.016033,26.0305115 145.457,25.43 C146.775,25.085 148.072,24.646 149.357,24.197 C152.257,23.187 153.334,21.34 152.812,18.336 C152.693,17.653 152.974,17.286 153.651,17.365 C154.83,17.504 155.999,17.721 157.175,17.882 C157.742,17.959 158.317,17.982 158.888,18.03 C158.641047,17.4351892 158.357161,16.8563943 158.038,16.297 C157.314,15.177 156.501,14.114 155.77,12.997 C155.574579,12.7609533 155.519886,12.4386005 155.626513,12.1513059 C155.73314,11.8640113 155.984897,11.655395 156.287,11.604 C156.887293,11.3909881 157.536405,11.3562576 158.156,11.504 C159.898808,12.0323812 161.593841,12.7071159 163.223,13.521 C164.967115,14.3608963 166.466071,15.6349923 167.576,17.221 C168.702,18.99 168.888,19.455 167.533,20.68 C167.506,20.705 167.533,20.788 167.533,20.696 C168.478,20.935 169.408,21.105 170.289,21.411 C171.22,21.734 172.099,22.203 173.011,22.583 C176.14,23.883 179.154,24.158 181.87,21.603 C182.107445,21.5035422 182.378651,21.5274831 182.595,21.667 C183.545,22.386 184.441,23.176 185.389,23.899 C187.452,25.474 188.513,25.257 189.76,23.048 C189.772,23.026 189.805,23.017 189.89,22.963 C190.19547,23.9056495 191.125087,24.5005369 192.109,24.383 C192.694,24.369 193.283,24.413 193.866,24.373 C194.811898,24.3139181 195.732857,24.6907742 196.366,25.396 C197.117944,26.2876393 198.431828,26.4449384 199.373,25.756 C200.443204,24.9888895 201.747413,24.6189864 203.061,24.71 C204.3,24.783 204.781,24.352 205.192,23.195 C205.771,21.559 206.302,19.903 206.958,18.295 C208.124,15.442 207.309,12.811 204.251,11.489 C202.787,10.855 201.351,10.165 199.9,9.489 C199.473736,9.24679159 199.029417,9.03783796 198.571,8.864 C198.238333,8.83487854 197.903139,8.86501223 197.581,8.953 C197.611975,9.26144664 197.671224,9.56639503 197.758,9.864 C197.911056,10.1770513 198.079941,10.4821124 198.264,10.778 C198.873,11.967 199.494,13.152 200.057,14.364 C200.107922,14.6241141 200.021843,14.8921654 199.829,15.074 C199.59117,15.1908134 199.311645,15.1859748 199.078,15.061 C198.643211,14.7689043 198.23885,14.4338907 197.871,14.061 C196.371,12.603 194.793,11.244 192.58,11.141 C190.919093,11.0462114 189.318245,10.4866078 187.96,9.526 C187.077492,8.95056275 185.986497,8.79256424 184.977,9.094 C185.015633,9.42877322 185.117433,9.75317666 185.277,10.05 C185.733448,10.5398473 186.22473,10.9960376 186.747,11.415 C187.446178,11.9351143 188.114009,12.4960921 188.747,13.095 C188.991343,13.4462504 189.045302,13.8959122 188.891,14.295 C187.970654,15.4527544 187.963625,17.0903884 188.874,18.256 C189.211,18.783 189.502,19.338 189.814,19.88 C189.17,19.201 188.682,18.391 188.014,17.786 C185.509781,15.6936106 182.728066,13.9578152 179.748,12.628 C177.148,11.346 174.518,10.128 171.888,8.873 C171.627,9.55 172.099,10.088 172.588,10.573 C173.608,11.573 174.688,12.519 175.696,13.535 C176.796,14.635 176.791,15.412 175.735,16.705 C175.424,16.463 175.101,16.229 174.799,15.972 C174.182,15.445 173.699,15.556 173.42,16.337 C173.241,16.846 173.127,17.378 172.974,17.937 C172.759524,17.8318792 172.554151,17.7091238 172.36,17.57 C170.36,15.87 168.343,14.206 166.392,12.459 C165.186,11.379 165.192,11.304 165.845,9.859 C166.514379,8.22321652 168.090941,7.14087679 169.858,7.104 C171.512056,7.20955235 173.139407,7.57328546 174.681,8.182 C176.811,8.943 178.938,9.713 181.095,10.387 C181.595,10.545 182.619,10.487 182.705,10.262 C182.821854,9.64611588 182.798958,9.01185537 182.638,8.406 C182.581103,8.21022335 182.482513,8.02907784 182.349,7.875 C181.189,6.116 179.312,5.375 177.511,4.583 C174.460579,3.29123953 171.251701,2.41150527 167.969,1.967 C164.958,1.512 161.909,1.293 158.869,1.059 C157.392751,0.981161974 155.913488,0.978825593 154.437,1.052 C153.683011,1.09506469 152.931704,1.17650352 152.186,1.296 C150.696,1.488 149.56,2.396 148.286,3.096 C145.639,4.553 142.831,5.717 140.103,7.031 C137.668,8.205 135.146,9.231 133.066,11.037 C132.172,11.812 132.149,12.183 132.99,13.007 C133.19,13.207 133.425,13.368 133.671,13.569 C132.790007,13.9841486 131.938363,14.4589176 131.122,14.99 C129.31,16.352 127.555,17.79 125.798,19.223 C123.736984,20.9430037 121.983925,23.0014275 120.614,25.31 C119.615749,26.6333574 119.243035,28.325721 119.593,29.946 C119.649511,30.2340755 119.617436,30.5325123 119.501,30.802 C118.874,32.395 118.244,33.988 117.564,35.559 C116.307,38.459 114.907,41.315 114.434,44.488 C114.101,46.726 114.39,48.48 117.159,49.103 C117.129,49.27 117.108,49.441 117.065,49.603 C116.055,53.445 114.945,57.264 114.059,61.135 C113.259,64.643 110.733,66.465 107.883,68.208 C107.931,69.158 108.606,69.685 109.724,69.341 Z" id="Path_1313"></path>
                            <path d="M223.583,112.666 C223.688718,111.665892 223.698429,110.657959 223.612,109.656 C222.674636,109.36828 221.659697,109.731688 221.118,110.549 C220.561406,111.328022 220.080552,112.158466 219.682,113.029 C218.982,114.529 218.398,116.085 217.682,117.58 C216.916,119.189 216.325,119.404 214.668,118.867 C214.533882,118.811083 214.396256,118.763982 214.256,118.726 C213.777386,118.546439 213.241213,118.612269 212.820252,118.902278 C212.399291,119.192287 212.146748,119.669819 212.144,120.181 C212.03167,120.93494 212.050956,121.702651 212.201,122.45 C212.801,125.016 213.494,127.56 214.158,130.112 C214.339,130.812 214.541,131.5 214.774,132.341 C213.779,131.458 212.966,130.662 212.074,129.971 C211.504,129.53 211.058,129.741 210.843,130.434 C210.749209,130.707722 210.703863,130.995701 210.709,131.285 C210.803,132.891 210.603,133.185 208.784,133.371 C207.973811,133.374418 207.227005,132.933245 206.839,132.222 C206.316793,131.45295 205.33355,131.145091 204.466,131.479 C203.770426,131.752244 202.978499,131.502161 202.566,130.879 C201.448957,129.653716 199.573933,129.502526 198.275,130.533 C197.702,130.979 197.19,131.504 196.644,131.986 C196.285379,132.393303 195.700275,132.51367 195.21,132.281 C193.973,131.715 192.732,131.152 191.464,130.661 C190.421,130.261 189.638,130.897 188.882,131.493 C188.126,132.089 187.368,132.711 186.467,133.439 L186.074,131.41 C185.046384,131.336117 184.027173,131.640173 183.208,132.265 C181.136,133.558 179.119,134.936 177.067,136.26 C176.716358,136.517802 176.3142,136.69688 175.888,136.785 C174.879,136.91 173.849,136.872 172.841,137.001 C171.43217,137.149774 170.034311,137.388596 168.656,137.716 C168.097653,137.852716 167.626933,138.226603 167.367399,138.73952 C167.107864,139.252437 167.085436,139.853158 167.306,140.384 C168.241,140.178 169.196,139.997 170.136,139.755 C173.701,138.838 177.254,137.871 180.828,136.99 C181.768867,136.653174 182.820013,136.926972 183.477,137.68 C183.818294,137.994186 184.235741,138.213768 184.688,138.317 C186.115598,138.629763 187.603749,138.514273 188.966,137.985 C191.096,137.413 193.197,136.737 195.32,136.139 C197.073647,135.639041 198.950092,135.803542 200.59,136.601 C201.255113,136.80807 201.712328,137.418496 201.724,138.115 C201.66844,138.800759 201.235932,139.398638 200.602,139.666 C199.408641,140.34597 198.058485,140.702726 196.685,140.701 C194.706706,140.669797 192.729729,140.82043 190.779,141.151 C189.251884,141.432687 187.685491,141.425564 186.161,141.13 C185.365311,141.028245 184.562177,140.997123 183.761,141.037 C183.495,141.044 183.235,141.277 182.972,141.406 C183.231,141.599 183.465,141.9 183.752,141.966 C186.012,142.48 188.274,142.994 190.552,143.414 C191.932,143.668 193.344,144.101 194.74,143.42 C195.368,143.114 196,142.814 196.631,142.513 C199.915,140.946 200.707,141.622 203.107,143.496 C203.738557,144.042038 204.300154,144.664094 204.779,145.348 C204.937524,145.60207 204.957811,145.918781 204.833,146.191 C204.583706,146.39 204.272941,146.496064 203.954,146.491 C203.693446,146.478422 203.437319,146.418794 203.198,146.315 C201.761,145.872 201.184,146.403 201.491,147.864 C201.760229,148.6103 201.573969,149.444963 201.013,150.006 C199.878562,151.136208 198.832493,152.351774 197.884,153.642 C197.081379,154.705134 196.406734,155.859079 195.874,157.08 C195.331,158.373 195.964,159.18 197.357,159.036 C198.118367,158.928778 198.837387,158.620528 199.44,158.143 C200.298483,157.389661 201.11662,156.591552 201.891,155.752 C202.75,154.921 203.354,154.999 203.831,156.066 C205.375,159.516 205.138,160.645 201.287,161.766 C200.810106,161.841994 200.38869,162.118832 200.129576,162.526339 C199.870461,162.933847 199.798524,163.432902 199.932,163.897 C200.113716,164.600436 199.772225,165.334117 199.117,165.648 C198.187835,166.263068 197.02908,166.421348 195.969,166.078 C194.905,165.778 194.314,166.189 193.617,167.045 C192.867636,167.999672 191.990399,168.846625 191.01,169.562 C189.892,170.343 189.336,170.085 188.661,168.862 C188.524117,168.538349 188.229849,168.308294 187.88273,168.253561 C187.535611,168.198828 187.184831,168.327172 186.955,168.593 C186.759406,168.807182 186.59143,169.045036 186.455,169.301 C185.479,170.937 184.755,171.219 183.004,170.535 C182.469723,170.302742 181.962664,170.012323 181.492,169.669 C180.264375,168.711998 178.579582,168.593406 177.23,169.369 C176.743,169.633 176.245,169.88 175.742,170.111 C174.86812,170.577796 173.810932,170.539617 172.973,170.011 C171.572432,169.179188 170.014676,168.646657 168.398,168.447 C166.800948,168.240175 165.289937,167.603906 164.026,166.606 C162.51,165.283 161.085,163.855 159.563,162.539 C158.572164,161.492802 157.278058,160.783841 155.863,160.512 C156.011623,161.131681 156.235626,161.730813 156.53,162.296 C158.66,165.237 160.717,168.245 163.046,171.023 C165.002568,173.117507 167.365262,174.791535 169.99,175.943 C172.684615,177.317021 175.447909,178.551976 178.269,179.643 C182.739,181.343 187.228,183.075 192.195,182.48 C194.845447,182.321843 197.399195,181.427304 199.569,179.897 C200.810995,178.832171 202.318483,178.124046 203.931,177.848 C205.366,177.658 206.846,177.407 207.831,176.169 C208.914744,174.670138 209.457051,172.847522 209.369,171 C209.396,168.234 209.197,165.465 209.039,162.7 C209.040321,162.124341 209.314502,161.583401 209.778,161.242 C210.801978,160.263339 211.723417,159.182742 212.528,158.017 C214.023755,155.280842 214.934674,152.263742 215.203,149.157 C215.389,147.833 215.87,146.83 217.331,146.557 C217.780946,146.439988 218.22018,146.285102 218.644,146.094 C219.148196,145.972625 219.572956,145.63459 219.804417,145.17051 C220.035879,144.706429 220.050368,144.16377 219.844,143.688 C219.488,142.682 218.965,141.736 218.581,140.738 C218.333062,140.093322 218.150805,139.425272 218.037,138.744 C217.993839,137.654731 218.326029,136.583673 218.978,135.71 C219.94693,134.026075 220.431444,132.107053 220.378,130.165 C220.399228,128.249296 220.639115,126.342279 221.093,124.481 C221.874,120.535 222.806,116.616 223.583,112.666 Z" id="Path_1314"></path>
                            <path d="M203.27,74.73 C201.397449,74.9756122 199.718603,76.008384 198.655,77.569 C197.466323,79.6350507 197.015979,82.044059 197.378,84.4 C197.69,87.954 198.141,91.5 198.578,95.038 C198.787245,97.2401118 199.404773,99.3839959 200.399,101.36 C200.929721,102.625576 202.299474,103.319979 203.634,103 C203.624149,102.409 203.564268,101.819895 203.455,101.239 C202.681,98.384 201.836,95.549 201.073,92.691 C200.93084,92.0933558 200.907733,91.4735702 201.005,90.867 C201.152,89.849 201.79,89.454 203.3,89.274 C205.089,89.061 205.62,88.089 204.807,86.494 C204.583,86.054 204.283,85.648 204.094,85.194 C204.028308,84.9188187 204.006373,84.6350073 204.029,84.353 C204.354,84.341 204.773,84.195 204.986,84.343 C205.514773,84.749969 206.008502,85.2005465 206.462,85.69 C206.827458,86.1412669 207.234955,86.5567997 207.679,86.931 C208.375496,87.3758162 209.227655,87.5052418 210.024813,87.2872809 C210.821971,87.0693199 211.489726,86.5243154 211.863,85.787 C212.257786,84.9800168 212.710992,84.2029491 213.219,83.462 C213.34,83.281 213.875,83.131 213.957,83.216 C214.185699,83.4622602 214.321477,83.7804913 214.341,84.116 C214.292184,84.5164903 214.204778,84.9113256 214.08,85.295 C213.934,86.069 214.042,86.687 214.994,86.853 C215.424298,86.9681119 215.84412,87.1193145 216.249,87.305 C215.725,87.805 215.271,88.221 214.842,88.659 C214.182,89.334 214.283,89.834 215.198,89.959 C216.608047,90.1496699 218.02688,90.2684901 219.449,90.315 C221.066,90.376 221.628,90.715 222.115,92.272 C222.557,93.682 222.94,95.112 223.366,96.527 C223.517,97.027 223.7,97.537 224.397,97.483 C224.442635,97.4019713 224.480793,97.3169532 224.511,97.229 C225.456333,93.1623333 226.399333,89.0956667 227.34,85.029 C227.777369,83.4372988 228.123928,81.8220279 228.378,80.191 C228.582315,77.6819416 229.712176,75.3384599 231.548,73.616 C233.402,71.848 234.29,69.616 232.742,67.085 C232.513652,66.7886534 232.433766,66.4039772 232.525237,66.0412139 C232.616708,65.6784506 232.869439,65.3776437 233.211,65.225 C233.932,64.819 234.791,64.666 235.535,64.294 C237.035,63.545 238.523,62.769 239.95,61.894 C240.301023,61.5653066 240.484777,61.0956324 240.45,60.616 C240.432,60.374 239.843,60.03 239.478,59.981 C238.156,59.803 236.817,59.76 235.491,59.61 C234.42207,59.5435237 233.362466,59.3703288 232.328,59.093 C229.981,58.327 229.374,56.285 229.328,54.161 C229.361208,52.7130493 229.613398,51.2784664 230.076,49.906 C230.687604,48.1902185 230.591174,46.3015679 229.808,44.657 C229.582326,44.1537532 229.465444,43.6085304 229.465,43.057 C229.42,41.534 229.436,40.01 229.452,38.486 C229.578195,36.8586791 228.628858,35.3391715 227.111,34.739 C226.390203,34.5193219 225.951695,33.7907773 226.095,33.051 C226.161923,32.2512543 225.778894,31.4805714 225.101,31.051 C223.59,29.904 221.72,29.161 220.788,27.337 C220.725207,27.2370611 220.639943,27.1531669 220.539,27.092 C217.943417,25.0539411 214.887406,23.6838868 211.639,23.102 C210.988326,23.0653905 210.34713,23.2709294 209.839,23.679 C209.589566,23.9149347 209.444389,24.2405102 209.435569,24.5837369 C209.426749,24.9269635 209.555013,25.2595657 209.792,25.508 C210.057026,25.9560414 210.373139,26.3718211 210.734,26.747 C212.385434,28.2358819 213.696834,30.0629738 214.579,32.104 C215.679,34.478 216.863,36.815 218.013,39.167 C219.124,41.437 220.398,43.642 220.813,46.189 C220.948,47.018 221.069,47.849 221.186,48.681 C221.459,50.611 222.652,52.142 223.412,53.862 C224.532077,56.1296389 224.690346,58.753155 223.851,61.139 C223.332836,62.2433735 222.747057,63.3147403 222.097,64.347 C221.518,65.454 220.669,66.47 221.369,67.91 C222.103,69.421 222.669,71.016 223.289,72.582 C223.948,74.245 224.589,75.917 225.233,77.582 L224.916,77.856 C224.491002,77.6587917 224.082378,77.4280629 223.694,77.166 C223.064667,76.6708324 222.230353,76.5209106 221.468,76.766 C220.967239,76.9162115 220.476011,77.09654 219.997,77.306 C217.703,78.206 216.974,78.078 215.603,76.474 C215.303,76.12 215.024,75.744 214.725,75.387 C213.656,74.113 212.479,73.728 211.325,75.101 C211.23,75.212 211.103,75.301 211.017,75.414 C210.595411,75.9701183 209.845994,76.1620322 209.209,75.877 C208.812571,75.7841703 208.428069,75.646273 208.063,75.466 C206.612134,74.6340687 204.903633,74.3717159 203.27,74.73 Z" id="Path_1315"></path>
                            <path d="M110.647,157.78 C110.622282,159.13047 111.08124,160.445274 111.941,161.487 C112.558,162.26 113.241,162.987 113.797,163.799 C114.843,165.334 115.789,166.937 116.827,168.478 C118.236,170.572 119.686,172.638 121.133,174.706 C121.733,175.559 122.262,175.65 123.133,175.073 C123.543,174.8 123.933,174.495 124.318,174.186 C126.301669,172.735525 127.912529,170.83471 129.018,168.64 C131.121817,164.111408 132.833744,159.410884 134.135,154.59 C134.395,153.598 134.566,152.583 134.835,151.318 C134.387858,151.371272 133.944842,151.454796 133.509,151.568 C132.158,152.059 130.844,152.668 129.468,153.073 C126.102521,154.186125 122.554696,154.643054 119.017,154.419 C117.672572,154.327002 116.323428,154.327002 114.979,154.419 C114.226557,154.447257 113.481278,154.576066 112.763,154.802 C111.450774,155.181546 110.573672,156.415956 110.647,157.78 L110.647,157.78 Z" id="Path_1316"></path>
                            <path d="M186.872,75.5 C186.02,75.425 185.71,74.836 185.284,74.291 C183.973,72.618 183.433,72.816 182.192,73.639 C180.995801,74.6088661 179.460254,75.0577847 177.93,74.885 C175.614998,74.4654286 173.228969,75.0070513 171.322,76.385 C169.722,77.423 168.036,78.121 166.1,77.133 C165.680842,77.0109859 165.243695,76.9626021 164.808,76.99 C162.716409,76.9925576 160.713083,77.8332198 159.246,79.324 C157.546392,80.9577802 155.752661,82.4907322 153.874,83.915 C153.382707,84.2019327 153.120296,84.762992 153.215,85.324 C153.186521,85.9260731 153.575632,86.4687588 154.155,86.635 C154.555464,86.824103 155.015459,86.8428817 155.430005,86.6870503 C155.84455,86.531219 156.178269,86.2140757 156.355,85.808 C156.917264,84.6504771 157.802554,83.6804441 158.904,83.015 C159.891904,82.4881528 160.843671,81.8961795 161.753,81.243 C163.524,80.043 164.872,79.543 166.567,80.906 C166.841282,81.2079359 167.06911,81.5490039 167.243,81.918 C166.843,82.049 166.401,82.356 166.043,82.282 C164.352613,81.8276905 162.54702,82.2487828 161.232,83.404 C160.46399,84.0583222 159.73444,84.7564864 159.047,85.495 C158.878348,85.8053712 158.885951,86.1816934 159.067,86.485 C159.304,86.698 159.78,86.673 160.156,86.691 C160.330492,86.6674379 160.493342,86.5902067 160.622,86.47 C160.903017,86.2293443 161.273262,86.1198278 161.639975,86.1688883 C162.006689,86.2179489 162.335125,86.4209382 162.543,86.727 C163.480154,87.6092312 164.672351,88.1724268 165.949,88.336 C166.519782,88.4204416 167.102559,88.3176398 167.61,88.043 C168.958555,87.327906 169.972064,86.1114787 170.432,84.656 C170.555,84.308 171.112,83.83 171.38,83.882 C171.889476,83.9944998 172.330897,84.3102133 172.602,84.756 C172.752,85.05 172.37,85.591 172.286,86.034 C172.197,86.5 172.179,86.979 172.131,87.452 C172.590275,87.5538219 173.061195,87.5931773 173.531,87.569 C174.682,87.352 175.816,87.036 176.954,86.75 C177.560207,86.6883245 178.005134,86.1521874 177.954,85.545 C177.954,84.645 178.728,84.265 179.566,84.691 C179.934097,84.9232846 180.316528,85.1320354 180.711,85.316 C180.987652,85.4576507 181.313858,85.4651575 181.596734,85.3363829 C181.879609,85.2076083 182.088159,84.9566624 182.163,84.655 C182.576859,83.7667267 183.060019,82.9124198 183.608,82.1 C183.875762,81.6255379 184.454301,81.4238413 184.959,81.629 C186.394,82.02 187.201,81.36 187.246,79.861 C187.126666,78.8305575 187.220613,77.7865818 187.522,76.794 C187.648948,76.5389703 187.648403,76.2390519 187.52053,75.984485 C187.392656,75.7299181 187.152381,75.5504205 186.872,75.5 L186.872,75.5 Z" id="Path_1317"></path>
                            <path d="M205.137,112.094 C204.143396,112.078979 203.212198,111.60674 202.613,110.814 C202.355671,110.527195 201.97988,110.375948 201.595616,110.404528 C201.211352,110.433108 200.86207,110.638283 200.65,110.96 C200.379957,111.338863 200.137339,111.736543 199.924,112.15 C199.513678,113.023861 198.592409,113.539386 197.633,113.432 C197.284,113.405 196.933,113.45 196.579,113.424 C195.872533,113.346301 195.18264,113.673642 194.796,114.27 C194.522808,114.696576 194.073615,114.9791 193.570803,115.040598 C193.067992,115.102096 192.563948,114.93616 192.196,114.588 C190.615,113.102 188.696,112.748 186.607,112.563 C185.618245,112.748792 184.640971,112.99119 183.68,113.289 C182.413309,113.730071 181.657237,115.028682 181.899,116.348 C182.177615,117.717373 183.413132,118.679038 184.809,118.613 C185.757295,118.503626 186.69249,118.300978 187.601,118.008 C189.282,117.542 190.237,117.753 191.201,119.118 C191.746906,119.87079 192.148059,120.718535 192.384,121.618 C192.699,122.935 192.718,124.318 192.984,125.653 C193.095665,126.108181 193.415524,126.484006 193.847,126.667 C194.416,126.78 194.856,126.316 194.993,125.71 C195.101,125.231 195.116,124.727 195.264,124.263 C195.885,122.31 197.44,121.326 199.192,120.563 C200.240126,120.079045 201.458451,120.136901 202.456,120.718 C203.162065,121.024233 203.914513,121.20981 204.682,121.267 C205.350182,121.388465 206.003479,120.99047 206.202,120.341 C206.361312,119.728328 206.121819,119.081297 205.602,118.72 C205.279395,118.454365 205.082228,118.066192 205.058,117.649 C205.269994,116.405278 205.598439,115.18424 206.039,114.002 C206.443,112.96 206.222,112.07 205.137,112.094 Z" id="Path_1318"></path>
                            <path d="M212.177,179 C211.8977,179.208946 211.605449,179.399995 211.302,179.572 C210.540565,179.978104 210.047338,180.753229 210.002,181.615 C209.937276,182.626458 209.810706,183.633007 209.623,184.629 C209.317605,185.504383 208.967478,186.363514 208.574,187.203 C208.394583,187.546904 208.376669,187.952605 208.525077,188.310984 C208.673485,188.669363 208.972977,188.943624 209.343,189.06 C209.98876,189.294634 210.648338,189.489335 211.318,189.643 C214.046689,189.348682 216.574153,188.068594 218.426,186.043 C221.106,183.043 221.159,180.043 218.666,176.951 C217.754,175.819 216.825,174.697 215.843,173.627 C214.956598,172.47298 214.310535,171.152973 213.943,169.745 C213.791,169.331 213.393,168.767 213.054,168.726 C212.573683,168.771509 212.1414,169.036563 211.883,169.444 C211.653538,169.877236 211.590238,170.379371 211.705,170.856 C212.141,172.597 212.66,174.317 213.174,176.037 C213.638234,177.134699 213.210387,178.406225 212.177,179 L212.177,179 Z" id="Path_1319"></path>
                            <path d="M148.44,117.828 C148.255924,117.430333 147.966017,117.090956 147.602,116.847 C146.534904,116.034162 145.657016,114.999325 145.029,113.814 C144.27,112.414 143.324,111.124 142.529,109.747 C142.108,109.016 141.867,108.184 141.475,107.434 C141.303377,107.173113 141.090229,106.942062 140.844,106.749963 C139.498,106.743 139.105,107.729 139.698,108.821 C140.090538,109.362913 140.401199,109.959638 140.62,110.592 C141.026209,112.10873 141.741126,113.525286 142.72,114.753 C143.154,115.405 143.528,116.097 143.92,116.775 C144.765,118.225 145.538,119.725 146.469,121.118 C147.532,122.709 148.74,124.202 149.869,125.747 C150.795,127.009 151.639,128.338 152.64,129.537 C153.46,130.52 154.22,130.537 155.068,129.55 C155.859133,128.588661 156.541297,127.54261 157.102,126.431 C157.341218,126.003803 157.388334,125.495281 157.231676,125.031405 C157.075018,124.567529 156.729241,124.191694 156.28,123.997 C155.862161,123.796837 155.433878,123.619248 154.997,123.465 C154.159733,123.168972 153.349702,122.800928 152.576,122.365 C150.837,121.211 149.176,119.945 148.44,117.828 Z" id="Path_1320"></path>
                            <path d="M135.567,122.469 C135.358,121.569 135.379,120.616 135.137,119.729 C134.878,118.778 134.151,118.651 133.299,119.19 C132.177,119.898 131.099,120.763 129.638,120.631 C129.213641,120.544991 128.781976,120.500116 128.349,120.497 C128.123,120.523 127.723,120.897 127.754,121.029 C127.870279,121.904939 128.145814,122.752217 128.567,123.529 C129.211421,124.346731 129.982897,125.055745 130.852,125.629 C131.695635,126.167906 132.183622,127.119422 132.129,128.119 C132.224741,130.73127 132.714602,133.314084 133.582,135.78 C133.736319,136.127118 133.932798,136.453911 134.167,136.753 L134.5,136.635 C134.462,136.214 134.441,135.792 134.383,135.374 C133.932186,133.080608 133.972402,130.717723 134.501,128.441 C135.069,126.481 136.07,124.629 135.567,122.469 Z" id="Path_1321"></path>
                            <path d="M119.182,92.4 C119.857586,92.3650687 120.533018,92.4716799 121.165,92.713 C121.539516,92.8993511 121.885371,93.1384519 122.192,93.423 C122.665,93.06 123.229,92.849 123.364,92.481 C123.636168,91.2691633 123.000281,90.0365787 121.855,89.556 C119.599,88.856 117.46,87.764 115.034,87.598 C113.834,87.515 112.693,88.098 112.792,89.029 C112.901972,90.6269356 113.426549,92.1686125 114.314,93.502 C114.898251,94.3667788 115.555306,95.1800687 116.278,95.933 C116.667901,96.201195 117.15956,96.2749623 117.611,96.133 C117.879,96.04 118.035,95.462 118.127,95.073 C118.182156,94.6963741 118.188206,94.3141831 118.145,93.936 C118.035856,93.2316092 118.487875,92.5620797 119.182,92.4 Z" id="Path_1322"></path>
                            <path d="M46.363,218.948 C46.127,218.948 45.585,219.106 44.499,219.256 C42.9599311,219.481583 41.4053769,219.584573 39.85,219.564 L12.15,219.564 C9.87078226,219.584228 7.5921341,219.481412 5.324,219.256 C3.624,219.022 2.924,218.485 2.385,218.485 C2.001,218.485 1.765,218.867 1.61,219.724 C1.452,220.268 0.133,226.63 0.133,227.718 C0.133,228.418 0.288,228.796 0.758,228.796 C1.228,228.796 1.378,228.484 1.533,227.945 C1.79601207,227.136823 2.18771337,226.376382 2.693,225.693 C3.702,224.221 5.329,223.763 9.293,223.682 L19.449,223.445 L19.449,250.134 C19.449,256.18 19.449,261.378 19.149,264.167 C18.915,266.111 18.528,267.354 17.13,267.657 C16.340668,267.835935 15.5320725,267.915552 14.723,267.894 C13.874,267.894 13.64,268.282 13.64,268.594 C13.64,269.057 14.103,269.294 14.954,269.294 C17.669,269.294 22.326,269.058 23.875,269.058 C25.807,269.058 30.392,269.294 34.885,269.294 C35.667,269.294 36.206,269.058 36.206,268.594 C36.206,268.272 35.906,267.894 35.116,267.894 C33.9493145,267.893885 32.7839779,267.814703 31.628,267.657 C29.615,267.357 29.228,266.111 28.994,264.246 C28.682,261.378 28.608,256.18 28.608,250.134 L28.608,223.445 L37.208,223.605 C43.342,223.682 45.122,225.693 45.274,227.405 L45.353,228.105 C45.429,229.105 45.582,229.42 46.128,229.42 C46.52,229.42 46.667,229.033 46.746,228.332 C46.746,226.632 46.901,221.74 46.901,220.347 C46.9,219.337 46.826,218.948 46.363,218.948 Z" id="Path_1323"></path>
                            <path d="M95.778,258.9 C95.31,258.9 95.158,259.212 95,259.909 C94.537,262.624 93.76,264.022 92.049,264.797 C90.26,265.573 87.395,265.651 85.61,265.651 C78.634,265.651 76.532,264.651 76.385,260.151 C76.301,258.208 76.385,252.624 76.385,250.372 L76.385,245.1 C76.385,244.7 76.459,244.4 76.771,244.4 C78.477,244.4 86.23,244.55 87.471,244.7 C90.031,244.939 90.883,245.945 91.271,247.26 C91.424,248.109 91.424,248.96 91.505,249.66 C91.505,249.971 91.658,250.202 92.123,250.202 C92.748,250.202 92.823,249.269 92.823,248.727 C92.823,248.26 92.983,245.621 93.136,244.307 C93.527,240.979 93.677,239.891 93.677,239.5 C93.677,239.109 93.443,238.8 93.136,238.8 C92.829,238.8 92.592,239.186 92.045,239.659 C91.425,240.359 90.416,240.515 88.789,240.67 C87.233,240.823 78.399,240.823 76.841,240.823 C76.455,240.823 76.381,240.51 76.381,240.123 L76.381,223.829 C76.381,223.443 76.529,223.219 76.841,223.219 C78.241,223.219 86.379,223.367 87.541,223.519 C90.955,223.826 91.496,224.764 92.036,225.919 C92.3500085,226.682347 92.508766,227.500611 92.503,228.326 C92.503,228.865 92.582,229.178 93.042,229.178 C93.589,229.178 93.742,228.398 93.815,228.093 C93.98,227.315 94.128,224.449 94.207,223.748 C94.2833507,222.313802 94.4658502,220.887231 94.753,219.48 C94.753,219.163 94.674,218.855 94.283,218.855 C93.9165467,218.934826 93.555496,219.037697 93.202,219.163 C92.2524514,219.344788 91.293694,219.474648 90.33,219.552 C89.013,219.64 73.888,219.552 71.717,219.552 C69.772,219.552 65.43,219.401 61.866,219.401 C60.859,219.401 60.313,219.552 60.313,220.026 C60.313,220.5 60.776,220.726 61.479,220.726 C62.387963,220.708287 63.2962741,220.786047 64.189,220.958 C66.368,221.578 66.989,222.277 67.141,224.527 C67.215,226.627 67.215,228.48 67.215,238.483 L67.234,238.483 L67.234,250.137 C67.234,256.183 67.234,261.384 66.926,264.173 C66.697,266.115 66.311,267.36 64.908,267.661 C64.120178,267.83449 63.3145253,267.913713 62.508,267.897 C61.656,267.897 61.422,268.286 61.422,268.597 C61.422,269.06 61.89,269.297 62.737,269.297 C64.137,269.297 65.837,269.223 67.468,269.142 C69.097,269.142 70.574,269.061 71.347,269.061 C73.365,269.061 75.918,269.137 79.256,269.223 C82.591,269.373 86.701,269.447 91.819,269.447 C94.376,269.447 95.001,269.447 95.466,267.747 C95.9749581,265.346234 96.2856714,262.907686 96.395,260.456 C96.394,259.761 96.312,258.9 95.778,258.9 Z" id="Path_1324"></path>
                            <path d="M159.14,269.294 L165.114,269.294 C166.352,269.294 166.743,269.058 166.743,268.594 C166.743,268.194 166.352,267.894 165.813,267.894 C164.369554,267.9197 162.938001,267.628883 161.619,267.042 C157.976,265.558 155.333,262.697 152.31,259.978 C149.671,257.501 136.256,243.538 133.852,240.436 C135.952,238.029 146.107,228.415 148.278,226.394 C151.148,223.682 153.319,222.283 155.492,221.511 C156.761011,221.049804 158.093823,220.788031 159.443,220.735 C160.063,220.735 160.455,220.504 160.455,220.035 C160.455,219.566 159.987,219.422 159.293,219.422 C157.193,219.422 153.393,219.573 151.303,219.573 C149.438,219.573 145.716,219.422 144.244,219.422 C143.55,219.422 143.158,219.573 143.158,220.035 C143.158,220.435 143.466,220.584 144.084,220.735 C144.685154,220.873455 145.086646,221.441052 145.017,222.054 C145.017,223.219 143.545,224.774 141.6,226.938 C139.584,229.188 129.655,238.962 127.329,241.438 L127.045,241.438 L127.045,238.5 C127.045,228.495 127.045,226.641 127.119,224.544 C127.272,222.215 127.819,221.283 129.677,220.979 C130.313376,220.832894 130.96318,220.753134 131.616,220.741 C132.16,220.741 132.547,220.509 132.547,220.041 C132.547,219.573 132.086,219.418 131.079,219.418 C128.83,219.418 123.937,219.569 122.305,219.569 C120.673,219.569 116.34,219.418 112.771,219.418 C111.762,219.418 111.216,219.569 111.216,220.041 C111.216,220.513 111.686,220.741 112.38,220.741 C113.290297,220.721439 114.200012,220.801244 115.093,220.979 C117.264,221.595 117.884,222.294 118.037,224.544 C118.113,226.644 118.113,228.495 118.113,238.5 L118.113,250.138 C118.113,256.185 118.113,261.379 117.813,264.168 C117.579,266.117 117.188,267.36 115.79,267.668 C115.001978,267.83982 114.196327,267.917364 113.39,267.899 C112.534,267.899 112.305,268.288 112.305,268.599 C112.305,269.071 112.77,269.299 113.624,269.299 C116.341,269.299 120.679,269.067 122.224,269.067 C123.93,269.067 128.824,269.299 132.616,269.299 C133.399,269.299 133.938,269.067 133.938,268.599 C133.850056,268.161617 133.447446,267.860198 133.003,267.899 C131.888124,267.895521 130.774697,267.818353 129.67,267.668 C127.962,267.36 127.342,266.117 127.182,264.254 C127.034,261.379 127.034,256.185 127.034,250.138 L127.034,244.169 L127.342,244.169 L128.042,245.099 C129.518,247.113 142.621,262.312 145.569,264.874 C148.517,267.436 150.769,268.83 154.411,269.138 C155.983215,269.277748 157.561993,269.329829 159.14,269.294 L159.14,269.294 Z" id="Path_1325"></path>
                            <path d="M205.812,223.605 C211.948,223.682 213.732,225.693 213.88,227.405 L213.964,228.105 C214.038,229.105 214.19,229.42 214.737,229.42 C215.121,229.42 215.278,229.033 215.355,228.332 C215.355,226.632 215.507,221.74 215.507,220.347 C215.507,219.335 215.436,218.947 214.971,218.947 C214.737,218.947 214.19,219.105 213.107,219.255 C211.566222,219.480291 210.01003,219.583279 208.453,219.563 L180.759,219.563 C178.479449,219.583274 176.200465,219.480457 173.932,219.255 C172.232,219.021 171.532,218.484 170.992,218.484 C170.606,218.484 170.37,218.866 170.215,219.723 C170.055,220.267 168.733,226.629 168.733,227.717 C168.733,228.417 168.888,228.795 169.356,228.795 C169.824,228.795 169.983,228.483 170.129,227.944 C170.397943,227.136584 170.792449,226.376595 171.298,225.692 C172.307,224.22 173.932,223.762 177.89,223.681 L188.05,223.444 L188.05,250.133 C188.05,256.179 188.05,261.377 187.742,264.166 C187.511,266.11 187.125,267.353 185.722,267.656 C184.935143,267.835572 184.128782,267.9152 183.322,267.893 C182.468,267.893 182.236,268.281 182.236,268.593 C182.236,269.056 182.704,269.293 183.555,269.293 C186.261,269.293 190.918,269.057 192.471,269.057 C194.413,269.057 198.982,269.293 203.486,269.293 C204.268,269.293 204.8,269.057 204.8,268.593 C204.8,268.271 204.5,267.893 203.717,267.893 C202.549658,267.892645 201.383673,267.813465 200.227,267.656 C198.216,267.356 197.827,266.11 197.593,264.245 C197.276,261.377 197.202,256.179 197.202,250.133 L197.202,223.445 L205.812,223.605 Z" id="Path_1326"></path>
                            <path d="M252.207,218.483 C231.499,218.483 223.583,233.064 223.583,244.311 C223.583,256.022 231.647,270.143 251.517,270.143 C269.117,270.143 280.136,258.272 280.136,243.149 C280.136,228.026 269.432,218.483 252.207,218.483 Z M254.294,266.569 C241.419,266.569 233.656,255.869 233.656,242.288 C233.656,226 242.583,221.969 250.188,221.969 C261.199,221.969 269.964,230.969 269.964,245.544 C269.964,264.317 259.106,266.569 254.294,266.569 Z" id="Path_1327"></path>
                            <path d="M347.363,267.884 C346.816124,267.903371 346.269081,267.850584 345.736,267.727 C344.646,267.502 342.236,267.195 338.436,263.394 C334.325,259.274 329.521,253.305 323.478,245.852 C330.141,240.506 332.932,236.161 332.932,231.273 C332.837019,227.665112 331.058984,224.309602 328.127,222.205 C324.48,219.795 319.513,219.405 315.161,219.405 C313.078,219.405 306.871,219.558 304.547,219.558 C303.147,219.558 298.805,219.405 295.236,219.405 C294.236,219.405 293.685,219.558 293.685,220.03 C293.685,220.502 294.141,220.73 294.844,220.73 C295.755731,220.711501 296.666847,220.789942 297.562,220.964 C299.737,221.584 300.362,222.283 300.51,224.533 C300.584,226.633 300.584,228.484 300.584,238.49 L300.589,238.49 L300.589,250.127 C300.589,256.17 300.589,261.369 300.281,264.157 C300.055,266.107 299.668,267.35 298.27,267.657 C297.482181,267.830187 296.676405,267.908078 295.87,267.889 C295.016,267.889 294.775,268.273 294.775,268.589 C294.775,269.062 295.24,269.289 296.099,269.289 C298.809,269.289 303.154,269.063 304.471,269.063 C305.471,269.063 311.139,269.289 315.092,269.289 C315.953,269.289 316.492,269.063 316.492,268.589 C316.445249,268.165523 316.070743,267.855648 315.646,267.889 C314.528881,267.882377 313.413307,267.804888 312.306,267.657 C310.206,267.345 309.906,266.102 309.667,264.157 C309.359,261.369 309.28,256.257 309.28,250.127 L309.28,249.197 C309.265078,249.04749 309.318182,248.899196 309.42462,248.793146 C309.531059,248.687095 309.679546,248.634532 309.829,248.65 L315.958,248.803 C316.418879,248.770206 316.870651,248.943007 317.192,249.275 C318.05,250.289 320.92,254.703 323.633,258.27 C327.433,263.394 329.993,266.495 332.933,267.97 C334.722,268.903 336.576,269.289 340.384,269.289 L346.902,269.289 C347.751,269.289 348.211,269.127 348.211,268.589 C348.192239,268.382977 348.092299,268.192877 347.933218,268.060623 C347.774138,267.928369 347.568985,267.864823 347.363,267.884 L347.363,267.884 Z M319.9,244.308 C318.736,245.158 317.812,245.389 315.088,245.389 C313.337259,245.426864 311.589784,245.220546 309.896,244.776 C309.429,244.54 309.271,244.313 309.271,243.612 L309.271,223.982 C309.271,223.445 309.429,223.209 309.896,223.057 C311.228831,222.867094 312.575093,222.787823 313.921,222.82 C317.963,222.82 324.321012,225.22 324.321012,234.534 C324.327,239.974 321.991,242.829 319.9,244.308 Z" id="Path_1328"></path>
                            <path d="M116.3,313.146 C116.061,313.146 115.992,313.282 115.925,313.723 C115.741396,314.438839 115.392374,315.101604 114.906,315.658 C113.718,316.982 112.254,317.187 109.606,317.187 C105.598,317.187 100.306,313.924 100.306,307.065 C100.306,304.247 100.85,301.465 103.055,299.565 C104.415,298.413 106.077,297.936 108.692,297.936 C111.445,297.936 113.449,298.649 114.466,299.636 C115.171529,300.355711 115.583048,301.312831 115.62,302.32 C115.62,302.695 115.692,302.931 115.928,302.931 C116.2,302.931 116.303,302.631 116.334,302.218 C116.367,301.64 116.367,300.044 116.434,299.095 C116.501,298.076 116.57,297.735 116.57,297.495 C116.57,297.328 116.47,297.189 116.127,297.154 C115.246,297.054 114.258,296.848 113.14,296.679 C111.699934,296.475512 110.247371,296.373262 108.793,296.373 C104.344,296.373 101.493,297.526 99.319,299.43 C97.045122,301.574736 95.7762173,304.575654 95.8216623,307.70109 C95.8671073,310.826526 97.222726,313.789283 99.558,315.867 C102.275,318.141 105.737,318.99 109.814,318.99 C111.6365,319.056549 113.458265,318.839286 115.214,318.346 C115.624615,318.251602 115.93422,317.913346 115.992,317.496 C116.30578,316.235197 116.521755,314.952051 116.638132,313.658 C116.643,313.418 116.505,313.146 116.3,313.146 Z" id="Path_1329"></path>
                            <path d="M136.679,318 C136.16734,318.00083 135.656199,317.967422 135.149,317.9 C134.269,317.763 134.064,317.32 133.961,316.54 C133.828,315.318 133.828,313.009 133.828,310.225 L133.828,305.131 C133.828,300.751 133.828,299.931 133.892,299.017 C133.961,297.998 134.2,297.592 135.016,297.456 C135.304821,297.390747 135.599902,297.357215 135.896,297.356 C136.204,297.356 136.371,297.287 136.371,297.017 C136.371,296.845 136.132,296.778 135.76,296.778 C134.605,296.778 132.671,296.845 131.926,296.845 C131.072,296.845 129.037,296.778 127.918,296.778 C127.444,296.778 127.205,296.845 127.205,297.017 C127.205,297.287 127.374,297.356 127.682,297.356 C128.048674,297.348536 128.41449,297.394347 128.768,297.492 C129.409,297.697 129.717,298.033 129.786,299.019 C129.82,299.937 129.82,300.753 129.82,305.133 L129.82,310.227 C129.82,313.011 129.82,315.32 129.684,316.508 C129.584,317.358 129.409,317.765 128.799,317.902 C128.453169,317.976723 128.099715,318.01029 127.746,318.002 C127.374,318.002 127.272,318.169 127.272,318.302 C127.272,318.502 127.477,318.602 127.849,318.602 C129.037,318.602 131.072,318.502 131.755,318.502 C132.568,318.502 134.605,318.602 136.576,318.602 C136.917,318.602 137.153,318.502 137.153,318.302 C137.153,318.17 137.02,318 136.679,318 Z" id="Path_1330"></path>
                            <path d="M170.1,307.78 C169.112,307.78 167.552,307.849 166.6,307.849 C165.715,307.849 163.577,307.78 162.017,307.78 C161.611,307.78 161.373,307.814 161.373,308.052 C161.373,308.222 161.573,308.358 161.847,308.358 C162.23386,308.348227 162.620599,308.381769 163,308.458 C163.954,308.728 164.257,309.036 164.29,310.018 C164.326,310.904 164.326,311.989 164.326,313.418 L164.326,316.066 C164.390767,316.497918 164.152702,316.918348 163.749,317.085 C163.077884,317.3414 162.358377,317.446235 161.642,317.392 C155.261,317.392 151.253,312.871 151.253,306.661 C151.253,303.128 152.338,300.991 154.001,299.631 C155.648325,298.368805 157.705524,297.763013 159.774,297.931 C162.13795,297.808921 164.459003,298.596083 166.261,300.131 C166.864758,300.781816 167.225395,301.621066 167.282,302.507 C167.313,302.746 167.382,302.884 167.582,302.884 C167.818,302.884 167.99,302.684 167.99,302.235 C167.961666,300.648427 168.028452,299.061582 168.19,297.483 C168.19,297.283 168.125,297.177 167.784,297.142 C166.98743,297.08231 166.194407,296.982181 165.408,296.842 C163.656562,296.544236 161.884452,296.384412 160.108,296.364 C157.303152,296.218641 154.514053,296.866011 152.06,298.232 C148.736275,300.200801 146.734813,303.811005 146.826,307.673 C146.826,315.653 153.313,318.981 160.651,318.981 C163.147612,319.062689 165.633836,318.623002 167.951,317.69 C168.328,317.49 168.328,317.452 168.328,316.674 L168.328,313.482 C168.328,312.053 168.328,310.901 168.362,310.015 C168.393,308.997 168.701,308.589 169.516,308.455 C169.783702,308.392923 170.05723,308.359402 170.332,308.355 C170.518503,308.370259 170.683513,308.234888 170.705056,308.049 C170.709,307.814 170.5,307.78 170.1,307.78 Z" id="Path_1331"></path>
                            <path d="M201.274,318 C200.897667,317.995304 200.522242,317.961873 200.151,317.9 C199.607,317.8 198.76,317.425 197.603,314.811 C195.703,310.43 190.71,298.611 190.003,297.016 C189.696,296.371 189.56,296.097 189.118,296.097 C188.818,296.097 188.577,296.438 188.236,297.254 L180.427,315.421 C179.816,316.881 179.303,317.764 177.948,317.967 C177.674,317.967 177.338,318.003 177.063,318.003 C176.825,318.003 176.722,318.139 176.722,318.303 C176.722,318.542 176.894,318.603 177.269,318.603 C178.829,318.603 180.427,318.503 180.73,318.503 C181.68,318.503 183.073,318.603 184.061,318.603 C184.361,318.603 184.538,318.537 184.538,318.303 C184.538,318.134 184.466,318.003 184.094,318.003 L183.653,318.003 C182.734,318.003 182.462,317.695 182.462,317.187 C182.504975,316.5768 182.655279,315.978969 182.906,315.421 L184.5,311.549 C184.569,311.382 184.6,311.349 184.774,311.349 L191.8,311.349 C191.936661,311.334091 192.064806,311.417846 192.106,311.549 L194.412,317.356 C194.476667,317.475626 194.483905,317.618045 194.431699,317.743611 C194.379493,317.869177 194.273417,317.964483 194.143,318.003 C193.843,318.036 193.771,318.139 193.771,318.303 C193.771,318.503 194.11,318.503 194.651,318.542 C197.168,318.608 199.339,318.608 200.391,318.608 C201.515,318.608 201.682,318.542 201.682,318.308 C201.68,318.1 201.544,318 201.274,318 Z M191.154,309.747 L185.381,309.747 C185.281,309.747 185.209,309.678 185.281,309.547 L188.165,302.247 C188.204,302.147 188.235,301.975 188.337,301.975 C188.404,301.975 188.437,302.147 188.473,302.247 L191.293,309.583 C191.321,309.679 191.29,309.748 191.154,309.748 L191.154,309.747 Z" id="Path_1332"></path>
                            <path d="M232.21,318 C231.970345,318.008071 231.73066,317.984875 231.497,317.931 C230.248539,317.678863 229.123324,317.008673 228.307,316.031 C226.507,314.231 224.401,311.618 221.753,308.356 C224.671,306.014 225.897,304.112 225.897,301.972 C225.855566,300.390483 225.076241,298.919534 223.791,297.997 C222.0531,297.064947 220.087393,296.642411 218.12,296.778 C217.201,296.778 214.486,296.845 213.465,296.845 C212.855,296.845 210.953,296.778 209.393,296.778 C208.949,296.778 208.713,296.845 208.713,297.048 C208.713,297.251 208.918,297.356 209.221,297.356 C209.621146,297.344955 210.021277,297.378494 210.414,297.456 C211.359,297.726 211.633,298.031 211.7,299.017 C211.736,299.935 211.736,300.751 211.736,305.131 L211.736,310.222 C211.736,312.87 211.736,315.149 211.602,316.368 C211.502,317.217 211.325,317.761 210.717,317.897 C210.370576,317.972265 210.016395,318.005837 209.662,317.997 C209.29,317.997 209.188,318.164 209.188,318.297 C209.188,318.497 209.393,318.597 209.765,318.597 C210.953,318.597 212.855,318.497 213.432,318.497 C213.876,318.497 216.354,318.597 218.086,318.597 C218.461,318.597 218.697,318.497 218.697,318.297 C218.673534,318.111281 218.506245,317.97816 218.32,317.997 C217.832371,317.994612 217.345388,317.961211 216.862,317.897 C215.944,317.761 215.808,317.217 215.706,316.368 C215.572,315.149 215.538,312.906 215.538,310.222 L215.538,309.814 C215.530772,309.74892 215.553737,309.684112 215.60033,309.638103 C215.646923,309.592095 215.712016,309.56995 215.777,309.578 L218.461,309.645 C218.662304,309.629142 218.860113,309.704376 219,309.85 C219.372,310.291 220.632,312.226 221.82,313.787 C223.483,316.029 224.606,317.387 225.897,318.033 C226.914111,318.504997 228.036644,318.703861 229.154,318.61 L232.009,318.61 C232.384,318.61 232.584,318.544 232.584,318.31 C232.565537,318.121537 232.398617,317.98318 232.21,318 L232.21,318 Z M220.188,307.674 C219.57199,308.08938 218.823105,308.25984 218.088,308.152 C217.31966,308.168781 216.552788,308.077214 215.81,307.88 C215.61,307.78 215.54,307.674 215.54,307.371 L215.54,298.778 C215.54,298.542 215.605,298.439 215.81,298.372 C216.395602,298.290326 216.986923,298.256881 217.578,298.272 C219.343,298.272 222.13,299.322 222.13,303.397 C222.25782,305.061444 221.525094,306.675555 220.188,307.675 L220.188,307.674 Z" id="Path_1333"></path>
                            <path d="M247.359,305.4 L246.138,304.72 C243.454,303.229 242.979,302.208 242.979,300.92 C242.979,298.952 244.916,297.83 247.056,297.83 C248.316543,297.734383 249.548612,298.237434 250.382,299.188 C250.842357,299.719712 251.117809,300.386412 251.167,301.088 C251.167,301.424 251.267,301.596 251.467,301.596 C251.706,301.596 251.842,301.288 251.842,300.68 C251.842,298.404 251.942,297.59 251.942,297.216 C251.942,297.016 251.806,296.91 251.537,296.841 C250.145533,296.512762 248.719601,296.353281 247.29,296.366 C243.144,296.366 239.751,298.642 239.751,302.176 C239.751,304.719 240.908,306.656 244.439,308.727 L246.169,309.745 C248.82,311.308 249.127,312.565 249.127,313.82 C249.127,315.86 247.562,317.489 244.981,317.489 C243.113,317.489 240.87,316.776 240.229,314.636 C240.064486,314.15447 239.971168,313.651497 239.952,313.143 C239.952,312.943 239.921,312.668 239.652,312.668 C239.416,312.668 239.28,312.968 239.28,313.415 C239.241,313.889 239.108,315.688 239.108,317.251 C239.108,317.895 239.208,318.031 239.685,318.236 C241.240945,318.798925 242.891823,319.052672 244.545,318.983 C246.290466,319.097089 248.029791,318.682383 249.536,317.793 C251.425117,316.656118 252.563866,314.597449 252.523,312.393 C252.522,309.782 251.3,307.575 247.359,305.4 Z" id="Path_1334"></path>
                        </g>
                    </g>
                </g>
            </g>
        </g>
    </g>
</svg>