<svg xmlns="http://www.w3.org/2000/svg" viewBox="0 0 832.71 141.28"><defs><style>.cls-1{fill:#1d1d1b;}</style></defs><title>Asset 2</title><g id="Layer_2" data-name="Layer 2"><g id="Lager_1" data-name="Lager 1"><path class="cls-1" d="M47,0V141.28H35.32v-.81c0-6.66-.4-19.78-11.91-19.78-11.7,0-11.7,14.13-11.7,20.59H0V0H11.71V120.9a23.19,23.19,0,0,1,23.61,0V0Z"/><path class="cls-1" d="M69.22.4H81.13V47h23.41V.4h11.91V141.28H104.54V50.05H81.13v91.23H69.22Z"/><path class="cls-1" d="M185.88,23.41v94.26a23.62,23.62,0,0,1-47.23,0V23.41a23.62,23.62,0,0,1,47.23,0Zm-11.91,0c0-6.46,0-20.58-11.71-20.58S150.56,17,150.56,23.41v94.26c0,6.66,0,20.58,11.7,20.58S174,124.33,174,117.67Z"/><path class="cls-1" d="M243.4,47V23.41c0-6.46,0-20.58-11.71-20.58-11.91,0-11.91,14.12-11.91,20.58v24c0,6.46,0,20.59,11.91,20.59A23.42,23.42,0,0,1,255.1,91.43v26.24a23.51,23.51,0,1,1-47,.2V91.43h11.7v26.44c0,6.66.21,20.38,11.91,20.38s11.71-14.13,11.71-20.58V91.43c0-6.46,0-20.59-11.71-20.59a23.47,23.47,0,0,1-23.61-23.41v-24a23.51,23.51,0,0,1,47,0V47Z"/><path class="cls-1" d="M289,.4V141.28H277.3V.4Z"/><path class="cls-1" d="M358.43,0V141.28h-11.9V20.38a23,23,0,0,1-11.71,3,23,23,0,0,1-11.7-3v120.9H311.21V.4h.2a.62.62,0,0,1-.2-.4h11.91c0,6.46,0,20.59,11.7,20.59S346.53,6.46,346.53,0Z"/><path class="cls-1" d="M427.86,23.41v94.26a23.62,23.62,0,0,1-47.23,0V23.41a23.62,23.62,0,0,1,47.23,0Zm-11.91,0c0-6.46,0-20.58-11.7-20.58S392.54,17,392.54,23.41v94.26c0,6.66,0,20.58,11.71,20.58S416,124.33,416,117.67Z"/><path class="cls-1" d="M450.06.2V0h11.71V.2c.2,12.92,6.05,32.3,23.61,32.3V0h11.71V141.28H485.38V35.52a35.08,35.08,0,0,1-23.61-9.08V141.28H450.06Z"/><path class="cls-1" d="M613.13,47V23.41c0-6.46,0-20.58-11.7-20.58-11.91,0-11.91,14.12-11.91,20.58v24c0,6.46,0,20.59,11.91,20.59a23.43,23.43,0,0,1,23.41,23.41v26.24a23.52,23.52,0,0,1-47,.2V91.43h11.71v26.44c0,6.66.2,20.38,11.91,20.38s11.7-14.13,11.7-20.58V91.43c0-6.46,0-20.59-11.7-20.59a23.47,23.47,0,0,1-23.62-23.41v-24a23.52,23.52,0,0,1,47,0V47Z"/><path class="cls-1" d="M694.26,23.41v94.26a23.61,23.61,0,1,1-47.22,0v-47A23.76,23.76,0,0,1,670.65,47a23.14,23.14,0,0,1,11.71,3.23V23.41c0-6.46,0-20.58-11.71-20.58S658.94,17,658.94,23.41V35.32H647V23.41A23.73,23.73,0,0,1,670.65,0,23.47,23.47,0,0,1,694.26,23.41Zm-11.9,46.83c0-6.46,0-20.19-11.71-20.19s-11.71,14.13-11.71,20.59v47c0,6.66,0,20.58,11.71,20.58s11.71-13.92,11.71-20.58Z"/><path class="cls-1" d="M716.46.2V0h11.71V.2c.2,12.92,6.05,32.3,23.61,32.3V0h11.71V141.28H751.78V35.52a35.1,35.1,0,0,1-23.61-9.08V141.28H716.46Z"/><path class="cls-1" d="M821,47V23.41C821,17,821,2.83,809.3,2.83c-11.91,0-11.91,14.12-11.91,20.58v24c0,6.46,0,20.59,11.91,20.59a23.42,23.42,0,0,1,23.41,23.41v26.24a23.51,23.51,0,0,1-47,.2V91.43h11.7v26.44c0,6.66.21,20.38,11.91,20.38S821,124.12,821,117.67V91.43c0-6.46,0-20.59-11.71-20.59a23.47,23.47,0,0,1-23.61-23.41v-24a23.51,23.51,0,0,1,47,0V47Z"/></g></g></svg>