<?xml version="1.0" standalone="no"?>
<!DOCTYPE svg PUBLIC "-//W3C//DTD SVG 20010904//EN"
 "http://www.w3.org/TR/2001/REC-SVG-20010904/DTD/svg10.dtd">
<svg version="1.0" xmlns="http://www.w3.org/2000/svg"
 width="279.000000pt" height="279.000000pt" viewBox="0 0 279.000000 279.000000"
 preserveAspectRatio="xMidYMid meet">
<metadata>
Created by potrace 1.11, written by Peter Selinger 2001-2013
</metadata>
<g transform="translate(0.000000,279.000000) scale(0.100000,-0.100000)"
fill="#000000" stroke="none">
<path d="M528 2402 c-16 -2 -28 -8 -28 -13 0 -5 -7 -9 -15 -9 -18 0 -55 -40
-70 -78 -23 -54 2 -149 45 -172 27 -14 70 -55 70 -66 0 -5 -9 -16 -21 -24 -20
-14 -59 -79 -66 -110 -9 -38 -11 -110 -3 -115 5 -3 7 -12 4 -19 -3 -8 0 -17 5
-21 6 -3 9 -10 7 -14 -3 -4 4 -18 15 -29 11 -12 17 -22 14 -22 -7 0 50 -53 91
-85 14 -11 72 -65 130 -120 57 -55 120 -112 139 -126 58 -44 127 -104 208
-183 43 -42 83 -76 88 -76 6 0 9 -3 7 -8 -2 -4 9 -19 24 -34 15 -15 28 -25 28
-22 0 2 19 -15 43 -38 24 -24 67 -63 96 -88 29 -25 66 -57 81 -72 15 -15 31
-24 34 -21 3 4 6 0 6 -7 0 -7 3 -11 6 -8 3 3 18 -6 33 -20 38 -36 71 -63 71
-57 0 2 12 -7 26 -20 15 -14 31 -25 35 -25 5 0 18 -8 28 -18 35 -31 51 -43 51
-37 0 3 11 -2 24 -10 81 -53 222 -29 300 51 18 19 42 34 53 34 12 0 47 -25 79
-55 33 -31 73 -63 89 -72 36 -19 137 -23 143 -5 2 7 10 12 17 12 8 0 26 20 41
45 28 48 34 106 14 130 -7 8 -9 15 -6 15 11 0 -11 24 -119 130 -12 12 -20 31
-19 47 1 16 -4 37 -9 48 -6 11 -10 24 -9 28 3 10 -13 28 -62 75 -69 66 -76 72
-76 66 0 -3 -13 7 -29 23 -16 15 -41 37 -55 48 -14 11 -37 29 -50 40 -13 11
-36 29 -50 40 -24 18 -54 42 -92 74 -7 5 -15 7 -18 4 -3 -4 -6 -1 -6 5 0 7
-16 20 -35 29 -19 9 -32 20 -29 25 3 4 0 8 -5 8 -6 0 -19 8 -30 19 -10 10 -25
23 -33 27 -20 12 -94 72 -129 106 -15 14 -30 23 -33 20 -3 -3 -6 0 -6 6 0 6
-9 14 -20 17 -11 4 -18 10 -15 15 2 4 -9 13 -25 20 -16 7 -27 16 -24 21 3 5 1
9 -4 9 -5 0 -18 8 -30 18 -11 9 -37 31 -59 48 -21 18 -51 44 -66 58 -15 14
-33 26 -38 26 -6 0 -7 5 -4 10 3 6 2 10 -3 10 -5 0 -18 8 -29 18 -63 54 -107
89 -185 147 -48 36 -90 65 -93 65 -3 0 -14 9 -25 20 -11 11 -26 20 -34 20 -7
0 -26 7 -42 14 -15 8 -32 12 -38 9 -6 -3 -8 -2 -4 2 5 5 -6 21 -24 37 -17 15
-28 28 -24 28 4 0 0 8 -10 18 -10 9 -21 17 -25 17 -12 0 -57 53 -64 75 -5 17
-12 20 -35 15 -16 -3 -44 -3 -62 2 -18 5 -45 7 -60 5z"/>
</g>
</svg>
