
<svg width="2151px" height="32px" viewBox="0 0 2151 32" version="1.1" xmlns="http://www.w3.org/2000/svg" xmlns:xlink="http://www.w3.org/1999/xlink">
    <defs>
        <path d="M0.123046875,1.59130859 L4.10693359,1.59130859 L4.10693359,27.496582 L19.0014648,27.496582 L19.0014648,31 L0.123046875,31 L0.123046875,1.59130859 Z M35.6176758,0.790527344 C40.8094335,0.790527344 44.6531451,2.45880493 47.1489258,5.79541016 C49.0975032,8.39796223 50.0717773,11.7278443 50.0717773,15.7851562 C50.0717773,20.1761287 48.9573679,23.8263201 46.7285156,26.7358398 C44.1126171,30.1525236 40.3823484,31.8608398 35.5375977,31.8608398 C31.013161,31.8608398 27.4563932,30.3660631 24.8671875,27.3764648 C22.5582567,24.4936379 21.4038086,20.8501197 21.4038086,16.4458008 C21.4038086,12.4685674 22.3914289,9.06528107 24.3666992,6.23583984 C26.9025192,2.60561336 30.6528072,0.790527344 35.6176758,0.790527344 Z M36.0180664,28.2973633 C39.5281751,28.2973633 42.0672936,27.039482 43.635498,24.5236816 C45.2037025,22.0078813 45.987793,19.115088 45.987793,15.8452148 C45.987793,12.3884918 45.0835865,9.60580481 43.2751465,7.49707031 C41.4667065,5.38833581 38.9943191,4.33398438 35.8579102,4.33398438 C32.8149262,4.33398438 30.3325291,5.37832615 28.4106445,7.46704102 C26.4887599,9.55575589 25.527832,12.6353963 25.527832,16.7060547 C25.527832,19.9625814 26.3519612,22.7085663 28.0002441,24.9440918 C29.6485271,27.1796173 32.3211078,28.2973633 36.0180664,28.2973633 Z M67.5288086,0.830566406 C70.2915177,0.830566406 72.6804912,1.36441523 74.6958008,2.43212891 C77.618667,3.96696731 79.4070605,6.65623078 80.0610352,10.5 L76.1171875,10.5 C75.6367163,8.35122624 74.6424229,6.78638186 73.1342773,5.80541992 C71.6261318,4.82445799 69.7242953,4.33398438 67.4287109,4.33398438 C64.7060411,4.33398438 62.4138277,5.35497026 60.552002,7.39697266 C58.6901762,9.43897505 57.7592773,12.4819134 57.7592773,16.5258789 C57.7592773,20.0226412 58.526685,22.8687227 60.0615234,25.064209 C61.5963618,27.2596952 64.0987782,28.3574219 67.5688477,28.3574219 C70.2247854,28.3574219 72.4235753,27.5866776 74.1652832,26.045166 C75.9069911,24.5036544 76.7978514,22.0112477 76.8378906,18.5678711 L67.6289062,18.5678711 L67.6289062,15.2646484 L80.5415039,15.2646484 L80.5415039,31 L77.9790039,31 L77.0180664,27.2163086 C75.6700779,28.6977613 74.4755911,29.7254203 73.4345703,30.2993164 C71.6861892,31.2869516 69.4640434,31.7807617 66.7680664,31.7807617 C63.2846506,31.7807617 60.288424,30.6530061 57.7792969,28.3974609 C55.0432806,25.5680197 53.675293,21.6842695 53.675293,16.7460938 C53.675293,11.8212644 55.009915,7.90414866 57.6791992,4.99462891 C60.2150192,2.21857336 63.4981895,0.830566406 67.5288086,0.830566406 Z M99.3999023,0.790527344 C104.59166,0.790527344 108.435372,2.45880493 110.931152,5.79541016 C112.87973,8.39796223 113.854004,11.7278443 113.854004,15.7851562 C113.854004,20.1761287 112.739594,23.8263201 110.510742,26.7358398 C107.894844,30.1525236 104.164575,31.8608398 99.3198242,31.8608398 C94.7953875,31.8608398 91.2386197,30.3660631 88.6494141,27.3764648 C86.3404832,24.4936379 85.1860352,20.8501197 85.1860352,16.4458008 C85.1860352,12.4685674 86.1736555,9.06528107 88.1489258,6.23583984 C90.6847458,2.60561336 94.4350338,0.790527344 99.3999023,0.790527344 Z M99.800293,28.2973633 C103.310402,28.2973633 105.84952,27.039482 107.417725,24.5236816 C108.985929,22.0078813 109.77002,19.115088 109.77002,15.8452148 C109.77002,12.3884918 108.865813,9.60580481 107.057373,7.49707031 C105.248933,5.38833581 102.776546,4.33398438 99.6401367,4.33398438 C96.5971528,4.33398438 94.1147557,5.37832615 92.1928711,7.46704102 C90.2709865,9.55575589 89.3100586,12.6353963 89.3100586,16.7060547 C89.3100586,19.9625814 90.1341877,22.7085663 91.7824707,24.9440918 C93.4307537,27.1796173 96.1033344,28.2973633 99.800293,28.2973633 Z M139.999512,1.59130859 L139.999512,5.09472656 L130.089844,5.09472656 L130.089844,31 L126.045898,31 L126.045898,5.09472656 L116.13623,5.09472656 L116.13623,1.59130859 L139.999512,1.59130859 Z M141.36084,1.59130859 L146.005371,1.59130859 L154.453613,15.7250977 L162.901855,1.59130859 L167.566406,1.59130859 L156.455566,19.1484375 L156.455566,31 L152.47168,31 L152.47168,19.1484375 L141.36084,1.59130859 Z M171.370117,1.59130859 L184.603027,1.59130859 C187.218926,1.59130859 189.327629,2.32868729 190.929199,3.8034668 C192.53077,5.27824631 193.331543,7.35024707 193.331543,10.0195312 C193.331543,12.3151156 192.61752,14.3137122 191.189453,16.0153809 C189.761386,17.7170495 187.565933,18.5678711 184.603027,18.5678711 L175.354004,18.5678711 L175.354004,31 L171.370117,31 L171.370117,1.59130859 Z M189.307617,10.0395508 C189.307617,7.8774306 188.506844,6.40934632 186.905273,5.63525391 C186.02441,5.22151486 184.816577,5.01464844 183.281738,5.01464844 L175.354004,5.01464844 L175.354004,15.2045898 L183.281738,15.2045898 C185.070159,15.2045898 186.52156,14.8242226 187.635986,14.0634766 C188.750412,13.3027306 189.307617,11.9614354 189.307617,10.0395508 Z M198.716797,1.59130859 L220.157715,1.59130859 L220.157715,5.19482422 L202.600586,5.19482422 L202.600586,14.1235352 L218.836426,14.1235352 L218.836426,17.5268555 L202.600586,17.5268555 L202.600586,27.496582 L220.458008,27.496582 L220.458008,31 L198.716797,31 L198.716797,1.59130859 Z M257.173828,16.3056641 C257.173828,17.5869205 256.756759,18.647945 255.922607,19.4887695 C255.088456,20.329594 254.030768,20.75 252.749512,20.75 C251.468255,20.75 250.410567,20.329594 249.576416,19.4887695 C248.742265,18.647945 248.325195,17.5869205 248.325195,16.3056641 C248.325195,15.0244077 248.742265,13.9700562 249.576416,13.1425781 C250.410567,12.3151 251.468255,11.9013672 252.749512,11.9013672 C254.030768,11.9013672 255.088456,12.3151 255.922607,13.1425781 C256.756759,13.9700562 257.173828,15.0244077 257.173828,16.3056641 Z M286.502441,1.59130859 L290.526367,1.59130859 L290.526367,31 L286.502441,31 L286.502441,1.59130859 Z M308.283691,27.5966797 C309.63168,27.5966797 310.739416,27.4565444 311.606934,27.1762695 C313.155118,26.6557591 314.423009,25.6547926 315.410645,24.1733398 C316.198083,22.9855084 316.765298,21.4640392 317.112305,19.6088867 C317.312501,18.5011338 317.412598,17.4734748 317.412598,16.5258789 C317.412598,12.882306 316.688565,10.0529072 315.240479,8.03759766 C313.792392,6.0222881 311.46014,5.01464844 308.243652,5.01464844 L301.176758,5.01464844 L301.176758,27.5966797 L308.283691,27.5966797 Z M297.172852,1.59130859 L309.084473,1.59130859 C313.128438,1.59130859 316.2648,3.02602732 318.493652,5.89550781 C320.482269,8.48471347 321.476562,11.8012493 321.476562,15.8452148 C321.476562,18.9682773 320.889329,21.791003 319.714844,24.3134766 C317.646149,28.7711811 314.089381,31 309.044434,31 L297.172852,31 L297.172852,1.59130859 Z M326.981934,1.59130859 L348.422852,1.59130859 L348.422852,5.19482422 L330.865723,5.19482422 L330.865723,14.1235352 L347.101562,14.1235352 L347.101562,17.5268555 L330.865723,17.5268555 L330.865723,27.496582 L348.723145,27.496582 L348.723145,31 L326.981934,31 L326.981934,1.59130859 Z M353.948242,1.59130859 L358.652832,1.59130859 L373.507324,25.4145508 L373.507324,1.59130859 L377.291016,1.59130859 L377.291016,31 L372.82666,31 L357.751953,7.19677734 L357.751953,31 L353.948242,31 L353.948242,1.59130859 Z M404.958008,1.59130859 L404.958008,5.09472656 L395.04834,5.09472656 L395.04834,31 L391.004395,31 L391.004395,5.09472656 L381.094727,5.09472656 L381.094727,1.59130859 L404.958008,1.59130859 Z M409.502441,1.59130859 L413.526367,1.59130859 L413.526367,31 L409.502441,31 L409.502441,1.59130859 Z M441.393555,1.59130859 L441.393555,5.09472656 L431.483887,5.09472656 L431.483887,31 L427.439941,31 L427.439941,5.09472656 L417.530273,5.09472656 L417.530273,1.59130859 L441.393555,1.59130859 Z M442.754883,1.59130859 L447.399414,1.59130859 L455.847656,15.7250977 L464.295898,1.59130859 L468.960449,1.59130859 L457.849609,19.1484375 L457.849609,31 L453.865723,31 L453.865723,19.1484375 L442.754883,1.59130859 Z M494.345215,27.5966797 C495.693203,27.5966797 496.80094,27.4565444 497.668457,27.1762695 C499.216642,26.6557591 500.484533,25.6547926 501.472168,24.1733398 C502.259607,22.9855084 502.826821,21.4640392 503.173828,19.6088867 C503.374024,18.5011338 503.474121,17.4734748 503.474121,16.5258789 C503.474121,12.882306 502.750089,10.0529072 501.302002,8.03759766 C499.853915,6.0222881 497.521663,5.01464844 494.305176,5.01464844 L487.238281,5.01464844 L487.238281,27.5966797 L494.345215,27.5966797 Z M483.234375,1.59130859 L495.145996,1.59130859 C499.189962,1.59130859 502.326323,3.02602732 504.555176,5.89550781 C506.543792,8.48471347 507.538086,11.8012493 507.538086,15.8452148 C507.538086,18.9682773 506.950852,21.791003 505.776367,24.3134766 C503.707672,28.7711811 500.150904,31 495.105957,31 L483.234375,31 L483.234375,1.59130859 Z M513.043457,1.59130859 L534.484375,1.59130859 L534.484375,5.19482422 L516.927246,5.19482422 L516.927246,14.1235352 L533.163086,14.1235352 L533.163086,17.5268555 L516.927246,17.5268555 L516.927246,27.496582 L534.784668,27.496582 L534.784668,31 L513.043457,31 L513.043457,1.59130859 Z M542.612305,21.5107422 C542.70573,23.1790448 543.099443,24.5336862 543.793457,25.574707 C545.114753,27.5232845 547.443668,28.4975586 550.780273,28.4975586 C552.275073,28.4975586 553.636387,28.2840191 554.864258,27.8569336 C557.239921,27.0294555 558.427734,25.548025 558.427734,23.4125977 C558.427734,21.8110271 557.927251,20.6699253 556.92627,19.9892578 C555.911942,19.3219368 554.323741,18.7413762 552.161621,18.2475586 L548.177734,17.3466797 C545.575182,16.7594372 543.733404,16.1121455 542.652344,15.4047852 C540.783845,14.1769144 539.849609,12.3418091 539.849609,9.89941406 C539.849609,7.25682272 540.763825,5.08806186 542.592285,3.39306641 C544.420745,1.69807095 547.009912,0.850585938 550.359863,0.850585938 C553.442887,0.850585938 556.062082,1.59463774 558.217529,3.08276367 C560.372976,4.5708896 561.450684,6.94985344 561.450684,10.2197266 L557.707031,10.2197266 C557.506835,8.6448489 557.079756,7.43701592 556.425781,6.59619141 C555.211257,5.061353 553.149266,4.29394531 550.239746,4.29394531 C547.890776,4.29394531 546.202479,4.78775548 545.174805,5.77539062 C544.14713,6.76302577 543.633301,7.91080075 543.633301,9.21875 C543.633301,10.6601635 544.233881,11.7145149 545.435059,12.3818359 C546.222497,12.8089214 548.004218,13.3427702 550.780273,13.9833984 L554.904297,14.9243164 C556.892914,15.3780947 558.427729,15.998694 559.508789,16.7861328 C561.377288,18.1608142 562.311523,20.1560742 562.311523,22.7719727 C562.311523,26.0284994 561.127046,28.3574149 558.758057,29.7587891 C556.389067,31.1601633 553.636409,31.8608398 550.5,31.8608398 C546.843081,31.8608398 543.980316,30.9266044 541.911621,29.0581055 C539.842926,27.202953 538.828613,24.6871904 538.868652,21.5107422 L542.612305,21.5107422 Z M568.257324,1.59130859 L572.28125,1.59130859 L572.28125,31 L568.257324,31 L568.257324,1.59130859 Z M591.459961,0.830566406 C594.22267,0.830566406 596.611644,1.36441523 598.626953,2.43212891 C601.549819,3.96696731 603.338213,6.65623078 603.992188,10.5 L600.04834,10.5 C599.567869,8.35122624 598.573575,6.78638186 597.06543,5.80541992 C595.557284,4.82445799 593.655448,4.33398438 591.359863,4.33398438 C588.637193,4.33398438 586.34498,5.35497026 584.483154,7.39697266 C582.621329,9.43897505 581.69043,12.4819134 581.69043,16.5258789 C581.69043,20.0226412 582.457837,22.8687227 583.992676,25.064209 C585.527514,27.2596952 588.029931,28.3574219 591.5,28.3574219 C594.155938,28.3574219 596.354728,27.5866776 598.096436,26.045166 C599.838143,24.5036544 600.729004,22.0112477 600.769043,18.5678711 L591.560059,18.5678711 L591.560059,15.2646484 L604.472656,15.2646484 L604.472656,31 L601.910156,31 L600.949219,27.2163086 C599.60123,28.6977613 598.406743,29.7254203 597.365723,30.2993164 C595.617342,31.2869516 593.395196,31.7807617 590.699219,31.7807617 C587.215803,31.7807617 584.219576,30.6530061 581.710449,28.3974609 C578.974433,25.5680197 577.606445,21.6842695 577.606445,16.7460938 C577.606445,11.8212644 578.941067,7.90414866 581.610352,4.99462891 C584.146172,2.21857336 587.429342,0.830566406 591.459961,0.830566406 Z M610.638672,1.59130859 L615.343262,1.59130859 L630.197754,25.4145508 L630.197754,1.59130859 L633.981445,1.59130859 L633.981445,31 L629.51709,31 L614.442383,7.19677734 L614.442383,31 L610.638672,31 L610.638672,1.59130859 Z M671.738281,16.3056641 C671.738281,17.5869205 671.321212,18.647945 670.487061,19.4887695 C669.652909,20.329594 668.595221,20.75 667.313965,20.75 C666.032708,20.75 664.97502,20.329594 664.140869,19.4887695 C663.306718,18.647945 662.889648,17.5869205 662.889648,16.3056641 C662.889648,15.0244077 663.306718,13.9700562 664.140869,13.1425781 C664.97502,12.3151 666.032708,11.9013672 667.313965,11.9013672 C668.595221,11.9013672 669.652909,12.3151 670.487061,13.1425781 C671.321212,13.9700562 671.738281,15.0244077 671.738281,16.3056641 Z M712.558105,0.790527344 C716.281757,0.790527344 719.171214,1.77147457 721.226562,3.73339844 C723.281911,5.69532231 724.423013,7.92414117 724.649902,10.4199219 L720.766113,10.4199219 C720.325681,8.52473011 719.448167,7.02328028 718.133545,5.91552734 C716.818922,4.80777441 714.973807,4.25390625 712.598145,4.25390625 C709.701971,4.25390625 707.363046,5.27155558 705.581299,7.30688477 C703.799552,9.34221395 702.908691,12.461893 702.908691,16.6660156 C702.908691,20.1093922 703.712801,22.9020889 705.321045,25.0441895 C706.929289,27.18629 709.328272,28.2573242 712.518066,28.2573242 C715.454279,28.2573242 717.689771,27.1295686 719.224609,24.8740234 C720.038741,23.686192 720.645994,22.1246842 721.046387,20.1894531 L724.930176,20.1894531 C724.583169,23.2858228 723.435394,25.8816627 721.486816,27.9770508 C719.151193,30.4995243 716.001485,31.7607422 712.037598,31.7607422 C708.620914,31.7607422 705.751476,30.7264101 703.429199,28.6577148 C700.372869,25.9216986 698.844727,21.6976197 698.844727,15.9853516 C698.844727,11.6477648 699.992502,8.09099695 702.288086,5.31494141 C704.77052,2.29865028 708.193826,0.790527344 712.558105,0.790527344 Z M734.099121,1.59130859 L734.099121,19.769043 C734.099121,21.9044703 734.499508,23.6795177 735.300293,25.0942383 C736.488124,27.2296656 738.490058,28.2973633 741.306152,28.2973633 C744.682797,28.2973633 746.978347,27.1429152 748.192871,24.8339844 C748.846846,23.5794208 749.173828,21.8911239 749.173828,19.769043 L749.173828,1.59130859 L753.217773,1.59130859 L753.217773,18.1074219 C753.217773,21.7243019 752.730636,24.506989 751.756348,26.4555664 C749.967927,30.0057144 746.591333,31.7807617 741.626465,31.7807617 C736.661596,31.7807617 733.291676,30.0057144 731.516602,26.4555664 C730.542313,24.506989 730.055176,21.7243019 730.055176,18.1074219 L730.055176,1.59130859 L734.099121,1.59130859 Z M761.986328,21.5107422 C762.079753,23.1790448 762.473467,24.5336862 763.16748,25.574707 C764.488776,27.5232845 766.817692,28.4975586 770.154297,28.4975586 C771.649096,28.4975586 773.010411,28.2840191 774.238281,27.8569336 C776.613944,27.0294555 777.801758,25.548025 777.801758,23.4125977 C777.801758,21.8110271 777.301275,20.6699253 776.300293,19.9892578 C775.285965,19.3219368 773.697765,18.7413762 771.535645,18.2475586 L767.551758,17.3466797 C764.949206,16.7594372 763.107427,16.1121455 762.026367,15.4047852 C760.157868,14.1769144 759.223633,12.3418091 759.223633,9.89941406 C759.223633,7.25682272 760.137849,5.08806186 761.966309,3.39306641 C763.794768,1.69807095 766.383935,0.850585938 769.733887,0.850585938 C772.81691,0.850585938 775.436106,1.59463774 777.591553,3.08276367 C779.747,4.5708896 780.824707,6.94985344 780.824707,10.2197266 L777.081055,10.2197266 C776.880858,8.6448489 776.453779,7.43701592 775.799805,6.59619141 C774.58528,5.061353 772.523289,4.29394531 769.61377,4.29394531 C767.264799,4.29394531 765.576503,4.78775548 764.548828,5.77539062 C763.521154,6.76302577 763.007324,7.91080075 763.007324,9.21875 C763.007324,10.6601635 763.607904,11.7145149 764.809082,12.3818359 C765.596521,12.8089214 767.378241,13.3427702 770.154297,13.9833984 L774.27832,14.9243164 C776.266937,15.3780947 777.801752,15.998694 778.882812,16.7861328 C780.751311,18.1608142 781.685547,20.1560742 781.685547,22.7719727 C781.685547,26.0284994 780.50107,28.3574149 778.13208,29.7587891 C775.76309,31.1601633 773.010432,31.8608398 769.874023,31.8608398 C766.217104,31.8608398 763.35434,30.9266044 761.285645,29.0581055 C759.216949,27.202953 758.202637,24.6871904 758.242676,21.5107422 L761.986328,21.5107422 Z M808.131348,1.59130859 L808.131348,5.09472656 L798.22168,5.09472656 L798.22168,31 L794.177734,31 L794.177734,5.09472656 L784.268066,5.09472656 L784.268066,1.59130859 L808.131348,1.59130859 Z M823.746582,0.790527344 C828.93834,0.790527344 832.782051,2.45880493 835.277832,5.79541016 C837.226409,8.39796223 838.200684,11.7278443 838.200684,15.7851562 C838.200684,20.1761287 837.086274,23.8263201 834.857422,26.7358398 C832.241523,30.1525236 828.511255,31.8608398 823.666504,31.8608398 C819.142067,31.8608398 815.585299,30.3660631 812.996094,27.3764648 C810.687163,24.4936379 809.532715,20.8501197 809.532715,16.4458008 C809.532715,12.4685674 810.520335,9.06528107 812.495605,6.23583984 C815.031425,2.60561336 818.781713,0.790527344 823.746582,0.790527344 Z M824.146973,28.2973633 C827.657081,28.2973633 830.1962,27.039482 831.764404,24.5236816 C833.332609,22.0078813 834.116699,19.115088 834.116699,15.8452148 C834.116699,12.3884918 833.212493,9.60580481 831.404053,7.49707031 C829.595613,5.38833581 827.123225,4.33398438 823.986816,4.33398438 C820.943832,4.33398438 818.461435,5.37832615 816.539551,7.46704102 C814.617666,9.55575589 813.656738,12.6353963 813.656738,16.7060547 C813.656738,19.9625814 814.480867,22.7085663 816.12915,24.9440918 C817.777433,27.1796173 820.450014,28.2973633 824.146973,28.2973633 Z M842.845215,1.59130859 L848.550781,1.59130859 L856.999023,26.4555664 L865.387207,1.59130859 L871.032715,1.59130859 L871.032715,31 L867.249023,31 L867.249023,13.6430664 C867.249023,13.0424775 867.26237,12.048184 867.289062,10.6601562 C867.315755,9.27212848 867.329102,7.78402487 867.329102,6.19580078 L858.940918,31 L854.99707,31 L846.548828,6.19580078 L846.548828,7.09667969 C846.548828,7.81738642 846.565511,8.91511307 846.598877,10.3898926 C846.632243,11.8646721 846.648926,12.9490525 846.648926,13.6430664 L846.648926,31 L842.845215,31 L842.845215,1.59130859 Z M888.389648,1.59130859 L894.095215,1.59130859 L902.543457,26.4555664 L910.931641,1.59130859 L916.577148,1.59130859 L916.577148,31 L912.793457,31 L912.793457,13.6430664 C912.793457,13.0424775 912.806803,12.048184 912.833496,10.6601562 C912.860189,9.27212848 912.873535,7.78402487 912.873535,6.19580078 L904.485352,31 L900.541504,31 L892.093262,6.19580078 L892.093262,7.09667969 C892.093262,7.81738642 892.109944,8.91511307 892.143311,10.3898926 C892.176677,11.8646721 892.193359,12.9490525 892.193359,13.6430664 L892.193359,31 L888.389648,31 L888.389648,1.59130859 Z M937.737793,18.9482422 L933.273438,5.95556641 L928.528809,18.9482422 L937.737793,18.9482422 Z M931.191406,1.59130859 L935.695801,1.59130859 L946.366211,31 L942.001953,31 L939.019043,22.1914062 L927.387695,22.1914062 L924.20459,31 L920.120605,31 L931.191406,1.59130859 Z M961.280762,27.5966797 C962.62875,27.5966797 963.736487,27.4565444 964.604004,27.1762695 C966.152189,26.6557591 967.42008,25.6547926 968.407715,24.1733398 C969.195154,22.9855084 969.762368,21.4640392 970.109375,19.6088867 C970.309571,18.5011338 970.409668,17.4734748 970.409668,16.5258789 C970.409668,12.882306 969.685635,10.0529072 968.237549,8.03759766 C966.789462,6.0222881 964.45721,5.01464844 961.240723,5.01464844 L954.173828,5.01464844 L954.173828,27.5966797 L961.280762,27.5966797 Z M950.169922,1.59130859 L962.081543,1.59130859 C966.125509,1.59130859 969.26187,3.02602732 971.490723,5.89550781 C973.479339,8.48471347 974.473633,11.8012493 974.473633,15.8452148 C974.473633,18.9682773 973.886399,21.791003 972.711914,24.3134766 C970.643219,28.7711811 967.086451,31 962.041504,31 L950.169922,31 L950.169922,1.59130859 Z M979.979004,1.59130859 L1001.41992,1.59130859 L1001.41992,5.19482422 L983.862793,5.19482422 L983.862793,14.1235352 L1000.09863,14.1235352 L1000.09863,17.5268555 L983.862793,17.5268555 L983.862793,27.496582 L1001.72021,27.496582 L1001.72021,31 L979.979004,31 L979.979004,1.59130859 Z M1039.0166,1.59130859 L1039.0166,5.09472656 L1029.10693,5.09472656 L1029.10693,31 L1025.06299,31 L1025.06299,5.09472656 L1015.15332,5.09472656 L1015.15332,1.59130859 L1039.0166,1.59130859 Z M1040.37793,1.59130859 L1045.02246,1.59130859 L1053.4707,15.7250977 L1061.91895,1.59130859 L1066.5835,1.59130859 L1055.47266,19.1484375 L1055.47266,31 L1051.48877,31 L1051.48877,19.1484375 L1040.37793,1.59130859 Z M1070.38721,1.59130859 L1083.62012,1.59130859 C1086.23602,1.59130859 1088.34472,2.32868729 1089.94629,3.8034668 C1091.54786,5.27824631 1092.34863,7.35024707 1092.34863,10.0195312 C1092.34863,12.3151156 1091.63461,14.3137122 1090.20654,16.0153809 C1088.77848,17.7170495 1086.58302,18.5678711 1083.62012,18.5678711 L1074.37109,18.5678711 L1074.37109,31 L1070.38721,31 L1070.38721,1.59130859 Z M1088.32471,10.0395508 C1088.32471,7.8774306 1087.52393,6.40934632 1085.92236,5.63525391 C1085.0415,5.22151486 1083.83367,5.01464844 1082.29883,5.01464844 L1074.37109,5.01464844 L1074.37109,15.2045898 L1082.29883,15.2045898 C1084.08725,15.2045898 1085.53865,14.8242226 1086.65308,14.0634766 C1087.7675,13.3027306 1088.32471,11.9614354 1088.32471,10.0395508 Z M1110.0459,0.790527344 C1115.23766,0.790527344 1119.08137,2.45880493 1121.57715,5.79541016 C1123.52573,8.39796223 1124.5,11.7278443 1124.5,15.7851562 C1124.5,20.1761287 1123.38559,23.8263201 1121.15674,26.7358398 C1118.54084,30.1525236 1114.81057,31.8608398 1109.96582,31.8608398 C1105.44138,31.8608398 1101.88462,30.3660631 1099.29541,27.3764648 C1096.98648,24.4936379 1095.83203,20.8501197 1095.83203,16.4458008 C1095.83203,12.4685674 1096.81965,9.06528107 1098.79492,6.23583984 C1101.33074,2.60561336 1105.08103,0.790527344 1110.0459,0.790527344 Z M1110.44629,28.2973633 C1113.9564,28.2973633 1116.49552,27.039482 1118.06372,24.5236816 C1119.63193,22.0078813 1120.41602,19.115088 1120.41602,15.8452148 C1120.41602,12.3884918 1119.51181,9.60580481 1117.70337,7.49707031 C1115.89493,5.38833581 1113.42254,4.33398438 1110.28613,4.33398438 C1107.24315,4.33398438 1104.76075,5.37832615 1102.83887,7.46704102 C1100.91698,9.55575589 1099.95605,12.6353963 1099.95605,16.7060547 C1099.95605,19.9625814 1100.78018,22.7085663 1102.42847,24.9440918 C1104.07675,27.1796173 1106.74933,28.2973633 1110.44629,28.2973633 Z M1141.95703,0.830566406 C1144.71974,0.830566406 1147.10871,1.36441523 1149.12402,2.43212891 C1152.04689,3.96696731 1153.83528,6.65623078 1154.48926,10.5 L1150.54541,10.5 C1150.06494,8.35122624 1149.07065,6.78638186 1147.5625,5.80541992 C1146.05435,4.82445799 1144.15252,4.33398438 1141.85693,4.33398438 C1139.13426,4.33398438 1136.84205,5.35497026 1134.98022,7.39697266 C1133.1184,9.43897505 1132.1875,12.4819134 1132.1875,16.5258789 C1132.1875,20.0226412 1132.95491,22.8687227 1134.48975,25.064209 C1136.02458,27.2596952 1138.527,28.3574219 1141.99707,28.3574219 C1144.65301,28.3574219 1146.8518,27.5866776 1148.59351,26.045166 C1150.33521,24.5036544 1151.22607,22.0112477 1151.26611,18.5678711 L1142.05713,18.5678711 L1142.05713,15.2646484 L1154.96973,15.2646484 L1154.96973,31 L1152.40723,31 L1151.44629,27.2163086 C1150.0983,28.6977613 1148.90381,29.7254203 1147.86279,30.2993164 C1146.11441,31.2869516 1143.89227,31.7807617 1141.19629,31.7807617 C1137.71287,31.7807617 1134.71665,30.6530061 1132.20752,28.3974609 C1129.4715,25.5680197 1128.10352,21.6842695 1128.10352,16.7460938 C1128.10352,11.8212644 1129.43814,7.90414866 1132.10742,4.99462891 C1134.64324,2.21857336 1137.92641,0.830566406 1141.95703,0.830566406 Z M1174.80908,15.0644531 C1176.67758,15.0644531 1178.15567,14.6907589 1179.24341,13.9433594 C1180.33114,13.1959598 1180.875,11.8479915 1180.875,9.89941406 C1180.875,7.80402598 1180.11427,6.37598037 1178.59277,5.61523438 C1177.77864,5.21484175 1176.69092,5.01464844 1175.32959,5.01464844 L1165.6001,5.01464844 L1165.6001,15.0644531 L1174.80908,15.0644531 Z M1161.61621,1.59130859 L1175.22949,1.59130859 C1177.47169,1.59130859 1179.32014,1.918291 1180.7749,2.57226562 C1183.53761,3.82682919 1184.91895,6.14239848 1184.91895,9.51904297 C1184.91895,11.2807705 1184.55526,12.7221624 1183.82788,13.8432617 C1183.1005,14.9643611 1182.08285,15.865231 1180.7749,16.5458984 C1181.92269,17.0130232 1182.78686,17.6269493 1183.36743,18.3876953 C1183.948,19.1484413 1184.27165,20.3829667 1184.33838,22.0913086 L1184.47852,26.0351562 C1184.51855,27.1562556 1184.61198,27.9903944 1184.75879,28.5375977 C1184.99902,29.4718471 1185.4261,30.0724271 1186.04004,30.3393555 L1186.04004,31 L1181.15527,31 C1181.02181,30.746418 1180.91504,30.4194356 1180.83496,30.019043 C1180.75488,29.6186503 1180.68815,28.8445695 1180.63477,27.6967773 L1180.39453,22.7919922 C1180.30111,20.8701076 1179.58708,19.5821973 1178.25244,18.9282227 C1177.4917,18.5678693 1176.29721,18.3876953 1174.66895,18.3876953 L1165.6001,18.3876953 L1165.6001,31 L1161.61621,31 L1161.61621,1.59130859 Z M1205.83936,18.9482422 L1201.375,5.95556641 L1196.63037,18.9482422 L1205.83936,18.9482422 Z M1199.29297,1.59130859 L1203.79736,1.59130859 L1214.46777,31 L1210.10352,31 L1207.12061,22.1914062 L1195.48926,22.1914062 L1192.30615,31 L1188.22217,31 L1199.29297,1.59130859 Z M1218.47168,1.59130859 L1231.70459,1.59130859 C1234.32049,1.59130859 1236.42919,2.32868729 1238.03076,3.8034668 C1239.63233,5.27824631 1240.43311,7.35024707 1240.43311,10.0195312 C1240.43311,12.3151156 1239.71908,14.3137122 1238.29102,16.0153809 C1236.86295,17.7170495 1234.6675,18.5678711 1231.70459,18.5678711 L1222.45557,18.5678711 L1222.45557,31 L1218.47168,31 L1218.47168,1.59130859 Z M1236.40918,10.0395508 C1236.40918,7.8774306 1235.60841,6.40934632 1234.00684,5.63525391 C1233.12597,5.22151486 1231.91814,5.01464844 1230.3833,5.01464844 L1222.45557,5.01464844 L1222.45557,15.2045898 L1230.3833,15.2045898 C1232.17172,15.2045898 1233.62312,14.8242226 1234.73755,14.0634766 C1235.85197,13.3027306 1236.40918,11.9614354 1236.40918,10.0395508 Z M1245.53809,1.59130859 L1249.56201,1.59130859 L1249.56201,13.7431641 L1264.85693,13.7431641 L1264.85693,1.59130859 L1268.88086,1.59130859 L1268.88086,31 L1264.85693,31 L1264.85693,17.246582 L1249.56201,17.246582 L1249.56201,31 L1245.53809,31 L1245.53809,1.59130859 Z M1272.76465,1.59130859 L1277.40918,1.59130859 L1285.85742,15.7250977 L1294.30566,1.59130859 L1298.97021,1.59130859 L1287.85938,19.1484375 L1287.85938,31 L1283.87549,31 L1283.87549,19.1484375 L1272.76465,1.59130859 Z M1333.16357,16.3056641 C1333.16357,17.5869205 1332.7465,18.647945 1331.91235,19.4887695 C1331.0782,20.329594 1330.02051,20.75 1328.73926,20.75 C1327.458,20.75 1326.40031,20.329594 1325.56616,19.4887695 C1324.73201,18.647945 1324.31494,17.5869205 1324.31494,16.3056641 C1324.31494,15.0244077 1324.73201,13.9700562 1325.56616,13.1425781 C1326.40031,12.3151 1327.458,11.9013672 1328.73926,11.9013672 C1330.02051,11.9013672 1331.0782,12.3151 1331.91235,13.1425781 C1332.7465,13.9700562 1333.16357,15.0244077 1333.16357,16.3056641 Z M1373.9834,0.790527344 C1377.70705,0.790527344 1380.59651,1.77147457 1382.65186,3.73339844 C1384.7072,5.69532231 1385.84831,7.92414117 1386.0752,10.4199219 L1382.19141,10.4199219 C1381.75097,8.52473011 1380.87346,7.02328028 1379.55884,5.91552734 C1378.24422,4.80777441 1376.3991,4.25390625 1374.02344,4.25390625 C1371.12726,4.25390625 1368.78834,5.27155558 1367.00659,7.30688477 C1365.22484,9.34221395 1364.33398,12.461893 1364.33398,16.6660156 C1364.33398,20.1093922 1365.13809,22.9020889 1366.74634,25.0441895 C1368.35458,27.18629 1370.75356,28.2573242 1373.94336,28.2573242 C1376.87957,28.2573242 1379.11506,27.1295686 1380.6499,24.8740234 C1381.46403,23.686192 1382.07129,22.1246842 1382.47168,20.1894531 L1386.35547,20.1894531 C1386.00846,23.2858228 1384.86069,25.8816627 1382.91211,27.9770508 C1380.57649,30.4995243 1377.42678,31.7607422 1373.46289,31.7607422 C1370.04621,31.7607422 1367.17677,30.7264101 1364.85449,28.6577148 C1361.79816,25.9216986 1360.27002,21.6976197 1360.27002,15.9853516 C1360.27002,11.6477648 1361.41779,8.09099695 1363.71338,5.31494141 C1366.19581,2.29865028 1369.61912,0.790527344 1373.9834,0.790527344 Z M1403.89258,0.790527344 C1409.08434,0.790527344 1412.92805,2.45880493 1415.42383,5.79541016 C1417.37241,8.39796223 1418.34668,11.7278443 1418.34668,15.7851562 C1418.34668,20.1761287 1417.23227,23.8263201 1415.00342,26.7358398 C1412.38752,30.1525236 1408.65725,31.8608398 1403.8125,31.8608398 C1399.28806,31.8608398 1395.7313,30.3660631 1393.14209,27.3764648 C1390.83316,24.4936379 1389.67871,20.8501197 1389.67871,16.4458008 C1389.67871,12.4685674 1390.66633,9.06528107 1392.6416,6.23583984 C1395.17742,2.60561336 1398.92771,0.790527344 1403.89258,0.790527344 Z M1404.29297,28.2973633 C1407.80308,28.2973633 1410.3422,27.039482 1411.9104,24.5236816 C1413.4786,22.0078813 1414.2627,19.115088 1414.2627,15.8452148 C1414.2627,12.3884918 1413.35849,9.60580481 1411.55005,7.49707031 C1409.74161,5.38833581 1407.26922,4.33398438 1404.13281,4.33398438 C1401.08983,4.33398438 1398.60743,5.37832615 1396.68555,7.46704102 C1394.76366,9.55575589 1393.80273,12.6353963 1393.80273,16.7060547 C1393.80273,19.9625814 1394.62686,22.7085663 1396.27515,24.9440918 C1397.92343,27.1796173 1400.59601,28.2973633 1404.29297,28.2973633 Z M1423.09131,1.59130859 L1427.7959,1.59130859 L1442.65039,25.4145508 L1442.65039,1.59130859 L1446.43408,1.59130859 L1446.43408,31 L1441.96973,31 L1426.89502,7.19677734 L1426.89502,31 L1423.09131,31 L1423.09131,1.59130859 Z M1465.09229,0.790527344 C1468.81594,0.790527344 1471.70539,1.77147457 1473.76074,3.73339844 C1475.81609,5.69532231 1476.95719,7.92414117 1477.18408,10.4199219 L1473.30029,10.4199219 C1472.85986,8.52473011 1471.98235,7.02328028 1470.66772,5.91552734 C1469.3531,4.80777441 1467.50799,4.25390625 1465.13232,4.25390625 C1462.23615,4.25390625 1459.89723,5.27155558 1458.11548,7.30688477 C1456.33373,9.34221395 1455.44287,12.461893 1455.44287,16.6660156 C1455.44287,20.1093922 1456.24698,22.9020889 1457.85522,25.0441895 C1459.46347,27.18629 1461.86245,28.2573242 1465.05225,28.2573242 C1467.98846,28.2573242 1470.22395,27.1295686 1471.75879,24.8740234 C1472.57292,23.686192 1473.18017,22.1246842 1473.58057,20.1894531 L1477.46436,20.1894531 C1477.11735,23.2858228 1475.96957,25.8816627 1474.021,27.9770508 C1471.68537,30.4995243 1468.53566,31.7607422 1464.57178,31.7607422 C1461.15509,31.7607422 1458.28566,30.7264101 1455.96338,28.6577148 C1452.90705,25.9216986 1451.37891,21.6976197 1451.37891,15.9853516 C1451.37891,11.6477648 1452.52668,8.09099695 1454.82227,5.31494141 C1457.3047,2.29865028 1460.72801,0.790527344 1465.09229,0.790527344 Z M1482.68945,1.59130859 L1504.13037,1.59130859 L1504.13037,5.19482422 L1486.57324,5.19482422 L1486.57324,14.1235352 L1502.80908,14.1235352 L1502.80908,17.5268555 L1486.57324,17.5268555 L1486.57324,27.496582 L1504.43066,27.496582 L1504.43066,31 L1482.68945,31 L1482.68945,1.59130859 Z M1510.03613,1.59130859 L1523.26904,1.59130859 C1525.88494,1.59130859 1527.99364,2.32868729 1529.59521,3.8034668 C1531.19679,5.27824631 1531.99756,7.35024707 1531.99756,10.0195312 C1531.99756,12.3151156 1531.28354,14.3137122 1529.85547,16.0153809 C1528.4274,17.7170495 1526.23195,18.5678711 1523.26904,18.5678711 L1514.02002,18.5678711 L1514.02002,31 L1510.03613,31 L1510.03613,1.59130859 Z M1527.97363,10.0395508 C1527.97363,7.8774306 1527.17286,6.40934632 1525.57129,5.63525391 C1524.69043,5.22151486 1523.48259,5.01464844 1521.94775,5.01464844 L1514.02002,5.01464844 L1514.02002,15.2045898 L1521.94775,15.2045898 C1523.73617,15.2045898 1525.18758,14.8242226 1526.302,14.0634766 C1527.41643,13.3027306 1527.97363,11.9614354 1527.97363,10.0395508 Z M1558.40332,1.59130859 L1558.40332,5.09472656 L1548.49365,5.09472656 L1548.49365,31 L1544.44971,31 L1544.44971,5.09472656 L1534.54004,5.09472656 L1534.54004,1.59130859 L1558.40332,1.59130859 Z M1593.39746,1.59130859 L1593.39746,5.09472656 L1583.48779,5.09472656 L1583.48779,31 L1579.44385,31 L1579.44385,5.09472656 L1569.53418,5.09472656 L1569.53418,1.59130859 L1593.39746,1.59130859 Z M1597.14111,1.59130859 L1601.16504,1.59130859 L1601.16504,13.7431641 L1616.45996,13.7431641 L1616.45996,1.59130859 L1620.48389,1.59130859 L1620.48389,31 L1616.45996,31 L1616.45996,17.246582 L1601.16504,17.246582 L1601.16504,31 L1597.14111,31 L1597.14111,1.59130859 Z M1627.55078,1.59130859 L1631.57471,1.59130859 L1631.57471,31 L1627.55078,31 L1627.55078,1.59130859 Z M1638.04102,1.59130859 L1642.74561,1.59130859 L1657.6001,25.4145508 L1657.6001,1.59130859 L1661.38379,1.59130859 L1661.38379,31 L1656.91943,31 L1641.84473,7.19677734 L1641.84473,31 L1638.04102,31 L1638.04102,1.59130859 Z M1667.6499,1.59130859 L1671.53369,1.59130859 L1671.53369,15.925293 L1685.86768,1.59130859 L1691.37305,1.59130859 L1679.14111,13.4428711 L1691.71338,31 L1686.52832,31 L1676.23828,16.2456055 L1671.53369,20.75 L1671.53369,31 L1667.6499,31 L1667.6499,1.59130859 Z M1695.89746,1.59130859 L1699.92139,1.59130859 L1699.92139,31 L1695.89746,31 L1695.89746,1.59130859 Z M1706.3877,1.59130859 L1711.09229,1.59130859 L1725.94678,25.4145508 L1725.94678,1.59130859 L1729.73047,1.59130859 L1729.73047,31 L1725.26611,31 L1710.19141,7.19677734 L1710.19141,31 L1706.3877,31 L1706.3877,1.59130859 Z M1748.70898,0.830566406 C1751.47169,0.830566406 1753.86067,1.36441523 1755.87598,2.43212891 C1758.79884,3.96696731 1760.58724,6.65623078 1761.24121,10.5 L1757.29736,10.5 C1756.81689,8.35122624 1755.8226,6.78638186 1754.31445,5.80541992 C1752.80631,4.82445799 1750.90447,4.33398438 1748.60889,4.33398438 C1745.88622,4.33398438 1743.594,5.35497026 1741.73218,7.39697266 C1739.87035,9.43897505 1738.93945,12.4819134 1738.93945,16.5258789 C1738.93945,20.0226412 1739.70686,22.8687227 1741.2417,25.064209 C1742.77654,27.2596952 1745.27895,28.3574219 1748.74902,28.3574219 C1751.40496,28.3574219 1753.60375,27.5866776 1755.34546,26.045166 C1757.08717,24.5036544 1757.97803,22.0112477 1758.01807,18.5678711 L1748.80908,18.5678711 L1748.80908,15.2646484 L1761.72168,15.2646484 L1761.72168,31 L1759.15918,31 L1758.19824,27.2163086 C1756.85025,28.6977613 1755.65577,29.7254203 1754.61475,30.2993164 C1752.86636,31.2869516 1750.64422,31.7807617 1747.94824,31.7807617 C1744.46483,31.7807617 1741.4686,30.6530061 1738.95947,28.3974609 C1736.22346,25.5680197 1734.85547,21.6842695 1734.85547,16.7460938 C1734.85547,11.8212644 1736.19009,7.90414866 1738.85938,4.99462891 C1741.39519,2.21857336 1744.67837,0.830566406 1748.70898,0.830566406 Z M1799.37842,16.3056641 C1799.37842,17.5869205 1798.96135,18.647945 1798.1272,19.4887695 C1797.29305,20.329594 1796.23536,20.75 1794.9541,20.75 C1793.67285,20.75 1792.61516,20.329594 1791.78101,19.4887695 C1790.94685,18.647945 1790.52979,17.5869205 1790.52979,16.3056641 C1790.52979,15.0244077 1790.94685,13.9700562 1791.78101,13.1425781 C1792.61516,12.3151 1793.67285,11.9013672 1794.9541,11.9013672 C1796.23536,11.9013672 1797.29305,12.3151 1798.1272,13.1425781 C1798.96135,13.9700562 1799.37842,15.0244077 1799.37842,16.3056641 Z M1829.74805,1.59130859 L1835.29346,25.5146484 L1841.93994,1.59130859 L1846.26416,1.59130859 L1852.91064,25.5146484 L1858.45605,1.59130859 L1862.82031,1.59130859 L1855.09277,31 L1850.90869,31 L1844.12207,6.61621094 L1837.29541,31 L1833.11133,31 L1825.42383,1.59130859 L1829.74805,1.59130859 Z M1866.88428,1.59130859 L1880.11719,1.59130859 C1882.73309,1.59130859 1884.84179,2.32868729 1886.44336,3.8034668 C1888.04493,5.27824631 1888.8457,7.35024707 1888.8457,10.0195312 C1888.8457,12.3151156 1888.13168,14.3137122 1886.70361,16.0153809 C1885.27555,17.7170495 1883.08009,18.5678711 1880.11719,18.5678711 L1870.86816,18.5678711 L1870.86816,31 L1866.88428,31 L1866.88428,1.59130859 Z M1884.82178,10.0395508 C1884.82178,7.8774306 1884.021,6.40934632 1882.41943,5.63525391 C1881.53857,5.22151486 1880.33074,5.01464844 1878.7959,5.01464844 L1870.86816,5.01464844 L1870.86816,15.2045898 L1878.7959,15.2045898 C1880.58432,15.2045898 1882.03572,14.8242226 1883.15015,14.0634766 C1884.26457,13.3027306 1884.82178,11.9614354 1884.82178,10.0395508 Z M1892.4292,17.7270508 L1902.479,17.7270508 L1902.479,21.4306641 L1892.4292,21.4306641 L1892.4292,17.7270508 Z M1909.4458,1.59130859 L1914.99121,25.5146484 L1921.6377,1.59130859 L1925.96191,1.59130859 L1932.6084,25.5146484 L1938.15381,1.59130859 L1942.51807,1.59130859 L1934.79053,31 L1930.60645,31 L1923.81982,6.61621094 L1916.99316,31 L1912.80908,31 L1905.12158,1.59130859 L1909.4458,1.59130859 Z M1946.58203,1.59130859 L1968.02295,1.59130859 L1968.02295,5.19482422 L1950.46582,5.19482422 L1950.46582,14.1235352 L1966.70166,14.1235352 L1966.70166,17.5268555 L1950.46582,17.5268555 L1950.46582,27.496582 L1968.32324,27.496582 L1968.32324,31 L1946.58203,31 L1946.58203,1.59130859 Z M1984.59912,14.0234375 C1986.28077,14.0234375 1987.5887,13.7898786 1988.52295,13.3227539 C1989.99106,12.5887008 1990.7251,11.2674249 1990.7251,9.35888672 C1990.7251,7.43700211 1989.94434,6.1424187 1988.38281,5.47509766 C1987.50195,5.10139787 1986.19402,4.91455078 1984.45898,4.91455078 L1977.35205,4.91455078 L1977.35205,14.0234375 L1984.59912,14.0234375 Z M1985.94043,27.5966797 C1988.38282,27.5966797 1990.12451,26.88933 1991.16553,25.4746094 C1991.8195,24.5803992 1992.14648,23.4993553 1992.14648,22.2314453 C1992.14648,20.096018 1991.19223,18.6412799 1989.28369,17.8671875 C1988.26936,17.4534485 1986.92807,17.246582 1985.25977,17.246582 L1977.35205,17.246582 L1977.35205,27.5966797 L1985.94043,27.5966797 Z M1973.44824,1.59130859 L1986.08057,1.59130859 C1989.52394,1.59130859 1991.97297,2.61896759 1993.42773,4.67431641 C1994.28191,5.88884071 1994.70898,7.29019388 1994.70898,8.87841797 C1994.70898,10.7335705 1994.18181,12.2550396 1993.12744,13.4428711 C1992.58024,14.0701529 1991.79281,14.6440404 1990.76514,15.1645508 C1992.27328,15.7384469 1993.40104,16.3857386 1994.14844,17.1064453 C1995.46973,18.3877017 1996.13037,20.156076 1996.13037,22.4116211 C1996.13037,24.3068129 1995.53646,26.0218022 1994.34863,27.5566406 C1992.57356,29.852225 1989.75083,31 1985.88037,31 L1973.44824,31 L1973.44824,1.59130859 Z M2003.49756,21.5107422 C2003.59098,23.1790448 2003.9847,24.5336862 2004.67871,25.574707 C2006.00001,27.5232845 2008.32892,28.4975586 2011.66553,28.4975586 C2013.16033,28.4975586 2014.52164,28.2840191 2015.74951,27.8569336 C2018.12517,27.0294555 2019.31299,25.548025 2019.31299,23.4125977 C2019.31299,21.8110271 2018.81251,20.6699253 2017.81152,19.9892578 C2016.7972,19.3219368 2015.209,18.7413762 2013.04688,18.2475586 L2009.06299,17.3466797 C2006.46044,16.7594372 2004.61866,16.1121455 2003.5376,15.4047852 C2001.6691,14.1769144 2000.73486,12.3418091 2000.73486,9.89941406 C2000.73486,7.25682272 2001.64908,5.08806186 2003.47754,3.39306641 C2005.306,1.69807095 2007.89517,0.850585938 2011.24512,0.850585938 C2014.32814,0.850585938 2016.94734,1.59463774 2019.10278,3.08276367 C2021.25823,4.5708896 2022.33594,6.94985344 2022.33594,10.2197266 L2018.59229,10.2197266 C2018.39209,8.6448489 2017.96501,7.43701592 2017.31104,6.59619141 C2016.09651,5.061353 2014.03452,4.29394531 2011.125,4.29394531 C2008.77603,4.29394531 2007.08773,4.78775548 2006.06006,5.77539062 C2005.03238,6.76302577 2004.51855,7.91080075 2004.51855,9.21875 C2004.51855,10.6601635 2005.11913,11.7145149 2006.32031,12.3818359 C2007.10775,12.8089214 2008.88947,13.3427702 2011.66553,13.9833984 L2015.78955,14.9243164 C2017.77817,15.3780947 2019.31298,15.998694 2020.39404,16.7861328 C2022.26254,18.1608142 2023.19678,20.1560742 2023.19678,22.7719727 C2023.19678,26.0284994 2022.0123,28.3574149 2019.64331,29.7587891 C2017.27432,31.1601633 2014.52166,31.8608398 2011.38525,31.8608398 C2007.72833,31.8608398 2004.86557,30.9266044 2002.79688,29.0581055 C2000.72818,27.202953 1999.71387,24.6871904 1999.75391,21.5107422 L2003.49756,21.5107422 Z M2029.14258,1.59130859 L2033.1665,1.59130859 L2033.1665,31 L2029.14258,31 L2029.14258,1.59130859 Z M2061.03369,1.59130859 L2061.03369,5.09472656 L2051.12402,5.09472656 L2051.12402,31 L2047.08008,31 L2047.08008,5.09472656 L2037.17041,5.09472656 L2037.17041,1.59130859 L2061.03369,1.59130859 Z M2065.05762,1.59130859 L2086.49854,1.59130859 L2086.49854,5.19482422 L2068.94141,5.19482422 L2068.94141,14.1235352 L2085.17725,14.1235352 L2085.17725,17.5268555 L2068.94141,17.5268555 L2068.94141,27.496582 L2086.79883,27.496582 L2086.79883,31 L2065.05762,31 L2065.05762,1.59130859 Z M2094.62646,21.5107422 C2094.71989,23.1790448 2095.1136,24.5336862 2095.80762,25.574707 C2097.12891,27.5232845 2099.45783,28.4975586 2102.79443,28.4975586 C2104.28923,28.4975586 2105.65055,28.2840191 2106.87842,27.8569336 C2109.25408,27.0294555 2110.44189,25.548025 2110.44189,23.4125977 C2110.44189,21.8110271 2109.94141,20.6699253 2108.94043,19.9892578 C2107.9261,19.3219368 2106.3379,18.7413762 2104.17578,18.2475586 L2100.19189,17.3466797 C2097.58934,16.7594372 2095.74756,16.1121455 2094.6665,15.4047852 C2092.798,14.1769144 2091.86377,12.3418091 2091.86377,9.89941406 C2091.86377,7.25682272 2092.77799,5.08806186 2094.60645,3.39306641 C2096.4349,1.69807095 2099.02407,0.850585938 2102.37402,0.850585938 C2105.45705,0.850585938 2108.07624,1.59463774 2110.23169,3.08276367 C2112.38714,4.5708896 2113.46484,6.94985344 2113.46484,10.2197266 L2109.72119,10.2197266 C2109.521,8.6448489 2109.09392,7.43701592 2108.43994,6.59619141 C2107.22542,5.061353 2105.16343,4.29394531 2102.25391,4.29394531 C2099.90494,4.29394531 2098.21664,4.78775548 2097.18896,5.77539062 C2096.16129,6.76302577 2095.64746,7.91080075 2095.64746,9.21875 C2095.64746,10.6601635 2096.24804,11.7145149 2097.44922,12.3818359 C2098.23666,12.8089214 2100.01838,13.3427702 2102.79443,13.9833984 L2106.91846,14.9243164 C2108.90707,15.3780947 2110.44189,15.998694 2111.52295,16.7861328 C2113.39145,18.1608142 2114.32568,20.1560742 2114.32568,22.7719727 C2114.32568,26.0284994 2113.14121,28.3574149 2110.77222,29.7587891 C2108.40323,31.1601633 2105.65057,31.8608398 2102.51416,31.8608398 C2098.85724,31.8608398 2095.99448,30.9266044 2093.92578,29.0581055 C2091.85709,27.202953 2090.84277,24.6871904 2090.88281,21.5107422 L2094.62646,21.5107422 Z M2150.86133,16.3056641 C2150.86133,17.5869205 2150.44426,18.647945 2149.61011,19.4887695 C2148.77596,20.329594 2147.71827,20.75 2146.43701,20.75 C2145.15576,20.75 2144.09807,20.329594 2143.26392,19.4887695 C2142.42976,18.647945 2142.0127,17.5869205 2142.0127,16.3056641 C2142.0127,15.0244077 2142.42976,13.9700562 2143.26392,13.1425781 C2144.09807,12.3151 2145.15576,11.9013672 2146.43701,11.9013672 C2147.71827,11.9013672 2148.77596,12.3151 2149.61011,13.1425781 C2150.44426,13.9700562 2150.86133,15.0244077 2150.86133,16.3056641 Z" id="path-1"></path>
    </defs>
    <g id="Page-1" stroke="none" stroke-width="1" fill="none" fill-rule="evenodd">
        <g id="LOGOTYPE•IDENTITYDESIGN•CUSTOMMADETYPOGRAPHY•CONCEPTTHINKING•WP-WEBSITES•" fill-rule="nonzero" fill="#000000">
            <use xlink:href="#path-1"></use>
            <use xlink:href="#path-1"></use>
        </g>
    </g>
</svg>